<svg xmlns="http://www.w3.org/2000/svg" viewBox="0 0 1862 900" width="1862" height="900">
<g id="layer-building" stroke="#e2e8f0" stroke-width="2" stroke-linecap="round" stroke-linejoin="round" fill="none">
<path d="M682.35,318.8 L682.35,229.91" fill="none" />
<path d="M683.14,182.18 L585.62,182.18" fill="none" />
<path d="M682.35,233.6 L682.35,252.82 L682.74,252.82 L682.74,233.6 Z" fill="none" />
<path d="M682.35,233.6 L682.35,252.82" fill="none" />
<path d="M682.35,252.82 L683.14,252.82" fill="none" />
<path d="M683.14,233.6 L682.35,233.6" fill="none" />
<path d="M683.14,233.6 L683.14,230.09" fill="none" />
<path d="M683.14,252.82 L683.14,318.8" fill="none" />
<path d="M683.14,221.82 L683.14,181.4" fill="none" />
<path d="M682.35,229.91 L682.35,230.09 L682.78,230.09 L682.78,229.91 Z" fill="none" />
<path d="M682.35,232.45 L682.35,254.02 L679,254.02 L679,232.45 Z" fill="none" />
<path d="M1268.22,284.6 L1268.22,282.8" fill="none" />
<path d="M1243.51,282.8 L1261.01,282.8" fill="none" />
<path d="M1253.81,282.8 L1253.81,284.6" fill="none" />
<path d="M1275.41,282.61 A7.2,7.2 0 0,0 1275.41,282.41" fill="none" />
<path d="M1261.01,282.8 A7.2,7.2 0 0,0 1261.01,282.61" fill="none" />
<path d="M1253.81,282.8 L1253.81,275.6 L1253.97,275.6 L1253.97,282.8 Z" fill="none" />
<path d="M1268.06,282.8 L1268.06,275.6 L1268.22,275.6 L1268.22,282.8 Z" fill="none" />
<path d="M578.78,85.18 L564.38,85.18" fill="none" />
<path d="M535.29,652.99 L584.4,652.99" fill="none" />
<path d="M372.21,841.6 L372.21,894.44 L390.22,894.44 L390.22,841.6 Z" fill="none" />
<path d="M373.79,843.18 L373.79,892.86 L388.65,892.86 L388.65,843.18 Z" fill="none" />
<path d="M376.99,894.44 L376.99,897.04 L385.44,897.04 L385.44,894.44 Z" fill="none" />
<path d="M380.04,896.25 L380.04,897.98 L382.4,897.98 L382.4,896.25 Z" fill="none" />
<path d="M591.25,149.47 L591.25,171.04 L587.9,171.04 L587.9,149.47 Z" fill="none" />
<path d="M636.44,81.88 L664.8,81.88 L664.8,85.23 L636.44,85.23 Z" fill="none" />
<path d="M1190.41,280.63 L1214.53,280.63 L1214.47,282.68 L1190.36,282.68 Z" fill="none" />
<path d="M885.88,833.38 L910,833.38 L909.94,837.29 L885.83,837.29 Z" fill="none" />
</g>
<g id="layer-aisles" stroke="#6366f1" stroke-width="0.5" stroke-linecap="round" stroke-linejoin="round" fill="none" stroke-dasharray="2 4">
<path d="M1214.41,148.8 L587.22,148.8" fill="none" />
<path d="M587.22,92.05 L1209.93,92.05" fill="none" />
<path d="M1190.41,168 L725.52,168" fill="none" />
<path d="M1190.41,275.6 L725.52,275.6" fill="none" />
<path d="M562.62,148.44 L463.22,148.44" fill="none" />
<path d="M1209.93,92.05 L1209.93,148.8" fill="none" />
<path d="M1214.41,148.8 L1214.41,282.8" fill="none" />
<path d="M1190.41,168 L1190.41,282.8" fill="none" />
<path d="M247.97,807.61 L683.22,807.61" fill="none" />
<path d="M247.97,698.42 L247.97,807.61" fill="none" />
<path d="M294.59,653.59 L247.97,698.46" fill="none" />
<path d="M683.22,455.5 L683.22,599.76" fill="none" />
<path d="M294.59,653.59 L294.59,608.1" fill="none" />
<path d="M294.59,608.1 L273.04,608.1" fill="none" />
<path d="M587.86,281.02 L587.86,298.89 L592.67,298.89 L592.67,281.02 Z" fill="none" />
<path d="M587.81,299.56 L587.81,317.39 L592.61,317.39 L592.61,299.56 Z" fill="none" />
<path d="M1150.81,694.41 L1243.26,694.41" fill="none" />
<path d="M1150.81,694.41 L1150.81,313.45" fill="none" />
<path d="M1150.81,313.45 L1243.27,313.45" fill="none" />
<path d="M319.8,455.5 L683.22,455.5" fill="none" />
<path d="M319.8,389.52 L319.8,455.5" fill="none" />
<path d="M319.8,389.52 L349.16,389.52" fill="none" />
<path d="M349.16,389.52 L349.16,319.03" fill="none" />
<path d="M145.52,319.03 L349.16,319.03" fill="none" />
<path d="M1680.51,763.61 L1668.51,763.61" fill="none" />
<path d="M1668.51,763.61 L1668.51,643.98" fill="none" />
<path d="M683.22,344.6 L349.16,344.6" fill="none" />
<path d="M319.8,389.52 L343.81,389.52" fill="none" />
<path d="M458.56,320.49 L459.27,181.41" fill="none" />
<path d="M683.22,416 L683.22,455.5" fill="none" />
<path d="M683.22,416 L683.22,344.6 L564.59,344.6 L564.59,416 Z" fill="none" />
<path d="M1262.48,694.41 L1262.48,313.45" fill="none" />
<path d="M1362.11,694.41 L1362.11,313.45" fill="none" />
<path d="M1262.48,694.41 L1362.11,694.41" fill="none" />
<path d="M1262.48,313.45 L1362.11,313.45" fill="none" />
<path d="M319.8,436.37 L683.22,436.37" fill="none" />
<path d="M658.28,653.59 L658.28,677.15" fill="none" />
<path d="M658.48,631.53 L658.48,607.51" fill="none" />
<path d="M658.48,607.51 L658.48,599.76" fill="none" />
<path d="M658.48,599.76 L683.22,599.76" fill="none" />
<path d="M683.22,631.06 L683.22,653.59" fill="none" />
<path d="M219.16,692.81 L145.62,692.81" fill="none" />
<path d="M219.16,692.81 L219.16,796.21" fill="none" />
<path d="M219.16,796.21 L145.62,796.21" fill="none" />
<path d="M282.83,825.03 L210.42,825.03" fill="none" />
<path d="M282.86,837.79 L282.86,825.21" fill="none" />
<path d="M273.14,640.9 L254.97,658.39" fill="none" />
<path d="M273.14,608.1 L273.14,640.9" fill="none" />
<path d="M206.71,658.39 L254.97,658.39" fill="none" />
<path d="M206.71,606.12 L206.71,658.39" fill="none" />
<path d="M216.79,606.12 L206.71,606.12" fill="none" />
<path d="M683.32,284.6 L683.32,292.48 L1190.41,292.48 L1190.41,284.6 Z" fill="none" />
<path d="M1150.81,713.08 L1150.81,793.5 L1191.72,793.5 L1191.72,713.08 Z" fill="none" />
<path d="M210.42,837.6 L210.42,825.03" fill="none" />
<path d="M1632.82,794.41 L1680.51,794.41" fill="none" />
<path d="M658.28,653.59 L658.28,682.41" fill="none" />
<path d="M658.28,682.41 L683.22,682.41" fill="none" />
<path d="M683.22,682.41 L683.22,807.61" fill="none" />
<path d="M1243.27,694.41 L1243.27,313.45" fill="none" />
<path d="M1381.33,694.41 L1381.33,313.45" fill="none" />
<path d="M1480.96,694.41 L1480.96,313.45" fill="none" />
<path d="M1381.33,313.45 L1480.96,313.45" fill="none" />
<path d="M1381.33,694.41 L1480.96,694.41" fill="none" />
<path d="M1150.81,713.08 L1150.81,793.5" fill="none" />
<path d="M721.24,666.25 L721.24,807.61" fill="none" />
<path d="M740.45,666.25 L721.24,666.25" fill="none" />
<path d="M740.45,666.25 L740.45,807.58" fill="none" />
<path d="M721.24,807.61 L740.43,807.61" fill="none" />
<path d="M821.62,837.6 L821.62,807.39" fill="none" />
<path d="M821.62,807.2 L920.72,807.2" fill="none" />
<path d="M920.72,794.73 L920.72,837.6" fill="none" />
<path d="M760.26,758.23 L760.26,794.34 L1134.28,794.34 L1134.28,758.23 Z" fill="none" />
<path d="M626.82,276.07 L626.72,318.63" fill="none" />
<path d="M1109.86,794.95 L1109.86,837.58" fill="none" />
<path d="M1101.36,794.95 L1101.36,837.42" fill="none" />
<path d="M933.05,794.95 L933.05,839.62" fill="none" />
<path d="M772.72,794.95 L772.72,837.58" fill="none" />
<path d="M763.66,794.95 L763.66,837.58" fill="none" />
<path d="M585.42,320.49 L458.56,320.49" fill="none" />
<path d="M585.38,181.41 L459.27,181.41" fill="none" />
<path d="M1746.03,643.98 L1668.51,643.98" fill="none" />
<path d="M1746.03,609.1 L1746.03,643.98" fill="none" />
<path d="M1746.03,431.1 L1622.42,431.1" fill="none" />
<path d="M1622.42,694.38 L1622.42,431.1" fill="none" />
<path d="M1622.42,694.38 L1668.51,694.38" fill="none" />
</g>
<g id="layer-storage" stroke="#92400e" stroke-width="0.3" stroke-linecap="round" stroke-linejoin="round" fill="none" stroke-opacity="0.4">
<circle cx="677.41" cy="189.41" r="2.25" fill="none" />
<circle cx="659.84" cy="189.41" r="2.25" fill="none" />
<circle cx="666.18" cy="189.41" r="2.25" fill="none" />
<circle cx="672.52" cy="189.41" r="2.25" fill="none" />
<circle cx="647.92" cy="189.41" r="2.25" fill="none" />
<circle cx="654.26" cy="189.41" r="2.25" fill="none" />
<circle cx="630.35" cy="189.41" r="2.25" fill="none" />
<circle cx="636.69" cy="189.41" r="2.25" fill="none" />
<circle cx="643.03" cy="189.41" r="2.25" fill="none" />
<circle cx="618.59" cy="189.41" r="2.25" fill="none" />
<circle cx="624.92" cy="189.41" r="2.25" fill="none" />
<circle cx="601.02" cy="189.41" r="2.25" fill="none" />
<circle cx="607.36" cy="189.41" r="2.25" fill="none" />
<circle cx="613.7" cy="189.41" r="2.25" fill="none" />
<path d="M675.93,186.05 L675.93,183.22" fill="none" />
<path d="M680.29,183.22 L680.29,186.05" fill="none" />
<path d="M680.29,186.05 L675.93,186.05" fill="none" />
<path d="M658.36,186.05 L658.36,183.22" fill="none" />
<path d="M662.72,183.22 L662.72,186.05" fill="none" />
<path d="M662.72,186.05 L658.36,186.05" fill="none" />
<path d="M664.7,186.05 L664.7,183.22" fill="none" />
<path d="M669.06,183.22 L669.06,186.05" fill="none" />
<path d="M669.06,186.05 L664.7,186.05" fill="none" />
<path d="M671.04,186.05 L671.04,183.22" fill="none" />
<path d="M675.4,183.22 L675.4,186.05" fill="none" />
<path d="M675.4,186.05 L671.04,186.05" fill="none" />
<path d="M646.43,186.05 L646.43,183.22" fill="none" />
<path d="M650.8,183.22 L650.8,186.05" fill="none" />
<path d="M650.8,186.05 L646.43,186.05" fill="none" />
<path d="M652.77,186.05 L652.77,183.22" fill="none" />
<path d="M657.13,183.22 L657.13,186.05" fill="none" />
<path d="M657.13,186.05 L652.77,186.05" fill="none" />
<path d="M628.87,186.05 L628.87,183.22" fill="none" />
<path d="M633.23,183.22 L633.23,186.05" fill="none" />
<path d="M633.23,186.05 L628.87,186.05" fill="none" />
<path d="M635.21,186.05 L635.21,183.22" fill="none" />
<path d="M639.57,183.22 L639.57,186.05" fill="none" />
<path d="M639.57,186.05 L635.21,186.05" fill="none" />
<path d="M641.55,186.05 L641.55,183.22" fill="none" />
<path d="M645.91,183.22 L645.91,186.05" fill="none" />
<path d="M645.91,186.05 L641.55,186.05" fill="none" />
<path d="M617.1,186.05 L617.1,183.22" fill="none" />
<path d="M621.46,183.22 L621.46,186.05" fill="none" />
<path d="M621.46,186.05 L617.1,186.05" fill="none" />
<path d="M623.44,186.05 L623.44,183.22" fill="none" />
<path d="M627.8,183.22 L627.8,186.05" fill="none" />
<path d="M627.8,186.05 L623.44,186.05" fill="none" />
<path d="M599.54,186.05 L599.54,183.22" fill="none" />
<path d="M603.9,183.22 L603.9,186.05" fill="none" />
<path d="M603.9,186.05 L599.54,186.05" fill="none" />
<path d="M605.88,186.05 L605.88,183.22" fill="none" />
<path d="M610.24,183.22 L610.24,186.05" fill="none" />
<path d="M610.24,186.05 L605.88,186.05" fill="none" />
<path d="M612.22,186.05 L612.22,183.22" fill="none" />
<path d="M616.58,183.22 L616.58,186.05" fill="none" />
<path d="M616.58,186.05 L612.22,186.05" fill="none" />
<path d="M494.39,568.1 L494.39,662.67 L495.18,662.67 L495.18,568.1 Z" fill="none" />
<path d="M510.06,567.79 L510.06,662.35 L510.85,662.35 L510.85,567.79 Z" fill="none" />
<path d="M374.9,588.34 L374.9,690 L375.69,689.87 L375.69,588.34 Z" fill="none" />
<path d="M390.57,588.02 L390.57,689.62 L391.36,689.62 L391.36,588.02 Z" fill="none" />
<path d="M300.97,456.38 L300.82,688.71 L301.75,688.71 L301.75,456.38 Z" fill="none" />
<path d="M316.64,456.06 L316.64,688.54 L317.42,688.54 L317.42,456.06 Z" fill="none" />
<path d="M277.65,525.39 L277.65,530.4 L291.25,530.4 L291.25,525.39 Z" fill="none" />
<path d="M294.59,653.59 L683.22,653.59" fill="none" />
<path d="M1323.48,461.59 L1323.48,471.2 L1328.32,471.2 L1328.32,461.59 Z" fill="none" />
<path d="M1329.46,461.59 L1329.46,471.2 L1334.3,471.2 L1334.3,461.59 Z" fill="none" />
<path d="M1333.06,619.95 L1333.06,639.16 L1342.66,639.16 L1342.66,619.95 Z" fill="none" />
<circle cx="1324" cy="629.39" r="4.88" fill="none" />
<path d="M1214.68,624.26 L1214.68,643.47 L1224.28,643.47 L1224.28,624.26 Z" fill="none" />
<circle cx="1206.02" cy="630.24" r="4.88" fill="none" />
<path d="M1163.27,325.46 L1163.27,335.07 L1168.12,335.07 L1168.12,325.46 Z" fill="none" />
<path d="M1163.16,314.99 L1163.16,324.6 L1168,324.6 L1168,314.99 Z" fill="none" />
<path d="M1234.03,316.33 L1234.03,325.94 L1238.87,325.94 L1238.87,316.33 Z" fill="none" />
<path d="M1234.06,327 L1234.06,336.61 L1238.9,336.61 L1238.9,327 Z" fill="none" />
<path d="M543.09,587.63 L543.09,662.38 L543.88,662.38 L543.88,587.63 Z" fill="none" />
<path d="M558.84,587.63 L558.84,662.38 L559.63,662.38 L559.63,587.63 Z" fill="none" />
<path d="M1456.9,387.34 L1456.9,396.95 L1461.74,396.95 L1461.74,387.34 Z" fill="none" />
<path d="M1458.92,524.34 L1468.53,524.34 L1468.53,519.5 L1458.92,519.5 Z" fill="none" />
<path d="M1458.92,517.89 L1468.53,517.89 L1468.53,513.04 L1458.92,513.04 Z" fill="none" />
<path d="M1462.88,387.34 L1462.88,396.95 L1467.73,396.95 L1467.73,387.34 Z" fill="none" />
<path d="M1459.1,620.07 L1459.1,639.28 L1468.71,639.28 L1468.71,620.07 Z" fill="none" />
<circle cx="1445.25" cy="628.93" r="4.88" fill="none" />
<circle cx="1235.53" cy="688.02" r="4.88" fill="none" />
<circle cx="1474.28" cy="688.02" r="4.88" fill="none" />
<circle cx="784.12" cy="387.75" r="2.45" fill="none" />
<path d="M780.66,387.75 L784.12,391.43" fill="none" />
<path d="M780.66,387.75 L784.12,384.07" fill="none" />
<path d="M784.12,391.43 L784.12,390.19" fill="none" />
<path d="M784.12,385.3 L784.12,384.07" fill="none" />
<circle cx="749.48" cy="387.73" r="2.45" fill="none" />
<path d="M752.94,387.73 L749.48,391.41" fill="none" />
<path d="M752.94,387.73 L749.48,384.05" fill="none" />
<path d="M749.48,391.41 L749.48,390.17" fill="none" />
<path d="M749.48,385.28 L749.48,384.05" fill="none" />
<circle cx="657.39" cy="361.18" r="2.45" fill="none" />
<path d="M660.85,361.18 L657.39,364.85" fill="none" />
<path d="M660.85,361.18 L657.39,357.5" fill="none" />
<path d="M657.39,364.85 L657.39,363.62" fill="none" />
<path d="M657.39,358.73 L657.39,357.5" fill="none" />
<circle cx="744.59" cy="387.73" r="2.45" fill="none" />
<path d="M741.12,387.73 L744.59,391.41" fill="none" />
<path d="M741.12,387.73 L744.59,384.05" fill="none" />
<path d="M744.59,391.41 L744.59,390.17" fill="none" />
<path d="M744.59,385.28 L744.59,384.05" fill="none" />
<path d="M1631.91,609.1 L1634.31,609.1" fill="none" />
<circle cx="490.06" cy="292.62" r="2.45" fill="none" />
<path d="M490.06,296.08 L493.74,292.62" fill="none" />
<path d="M490.06,296.08 L486.38,292.62" fill="none" />
<path d="M493.74,292.62 L492.51,292.62" fill="none" />
<path d="M487.62,292.62 L486.38,292.62" fill="none" />
<path d="M319.54,42.58 L305.49,42.58" fill="none" />
<path d="M244.57,264.09 L249.38,264.09" fill="none" />
<path d="M1435.92,528.1 L1435.92,523.65" fill="none" />
<path d="M834.02,313.45 L834.02,756.05 L1120.49,756.05 L1120.49,313.45 Z" fill="none" />
<path d="M1220.73,550.4 L1230.33,550.4 L1230.33,545.56 L1220.73,545.56 Z" fill="none" />
<path d="M1220.73,543.94 L1230.33,543.94 L1230.33,539.1 L1220.73,539.1 Z" fill="none" />
<path d="M1337.74,565.41 L1347.35,565.41 L1347.35,560.57 L1337.74,560.57 Z" fill="none" />
<path d="M1337.74,558.95 L1347.35,558.95 L1347.35,554.11 L1337.74,554.11 Z" fill="none" />
<path d="M304,522.98 L304,670.17" fill="none" />
<path d="M304,522.98 L304,670.17" fill="none" />
<path d="M304,522.98 L304,670.17" fill="none" />
</g>
<g id="layer-workbenches" stroke="#92400e" stroke-width="0.3" stroke-linecap="round" stroke-linejoin="round" fill="none" stroke-opacity="0.4">
<path d="M465.22,96.75 L465.22,87.14 L484.44,87.14 L484.44,96.75 Z" fill="none" />
<path d="M498.08,96.74 L498.08,87.13 L517.29,87.13 L517.29,96.74 Z" fill="none" />
<path d="M532.43,96.74 L532.43,87.13 L551.64,87.13 L551.64,96.74 Z" fill="none" />
<path d="M687.94,217.2 L683.14,217.2 L683.14,207.59 L687.94,207.59 Z" fill="none" />
<path d="M678.29,106.42 L678.29,101.62 L687.89,101.62 L687.89,106.42 Z" fill="none" />
<path d="M818.93,99.24 L818.93,94.44 L828.54,94.44 L828.54,99.24 Z" fill="none" />
<path d="M585.32,606.21 L585.32,601.41 L594.93,601.41 L594.93,606.21 Z" fill="none" />
<path d="M1068.84,102.03 L1068.84,92.42 L1088.06,92.42 L1088.06,102.03 Z" fill="none" />
<path d="M1103.98,102.03 L1103.98,92.42 L1123.19,92.42 L1123.19,102.03 Z" fill="none" />
<path d="M1138.33,102.03 L1138.33,92.42 L1157.54,92.42 L1157.54,102.03 Z" fill="none" />
<path d="M678.29,130.52 L678.29,135.32 L687.89,135.32 L687.89,130.52 Z" fill="none" />
<path d="M1354.27,392.86 L1354.27,384.47 L1360.43,384.47 L1360.43,392.86 Z" fill="none" />
<path d="M1360.43,386.57 L1360.43,390.77 L1361.95,390.77 L1361.95,386.57 Z" fill="none" />
<path d="M1360.65,387.33 L1360.65,390.01 L1360.96,390.01 L1360.96,387.33 Z" fill="none" />
<path d="M1361.57,388.29 A4.18,4.18 0 1,0 1361.59,388.68" fill="none" />
<path d="M1361.2,386.94 L1361.2,390.48" fill="none" />
<path d="M1318.9,611.36 L1318.9,602.97 L1325.06,602.97 L1325.06,611.36 Z" fill="none" />
<path d="M1325.06,605.07 L1325.06,609.26 L1326.58,609.26 L1326.58,605.07 Z" fill="none" />
<path d="M1325.28,605.83 L1325.28,608.5 L1325.59,608.5 L1325.59,605.83 Z" fill="none" />
<path d="M1326.2,606.78 A4.18,4.18 0 1,0 1326.22,607.18" fill="none" />
<path d="M1325.83,605.44 L1325.83,608.98" fill="none" />
<path d="M1299.44,643.84 L1299.44,650.85 L1315.73,650.85 L1315.73,643.84 Z" fill="none" />
<path d="M1303.3,366.32 L1303.3,342.31 L1311.7,342.31 L1311.7,366.32 Z" fill="none" />
<path d="M1281.68,384.73 L1281.68,376.34 L1296.09,376.34 L1296.09,384.73 Z" fill="none" />
<path d="M1281.68,378.44 L1281.68,382.63 L1280.17,382.63 L1280.17,378.44 Z" fill="none" />
<path d="M1281.47,379.2 L1281.47,381.87 L1281.15,381.87 L1281.15,379.2 Z" fill="none" />
<path d="M1288.88,380.38 A4.18,4.18 0 0,0 1288.87,380.32" fill="none" />
<path d="M1280.91,378.81 L1280.91,382.35" fill="none" />
<path d="M1281.68,402.76 L1281.68,394.37 L1296.09,394.37 L1296.09,402.76 Z" fill="none" />
<path d="M1200.55,612.68 L1200.55,604.29 L1206.71,604.29 L1206.71,612.68 Z" fill="none" />
<path d="M1206.71,606.38 L1206.71,610.58 L1208.23,610.58 L1208.23,606.38 Z" fill="none" />
<path d="M1206.93,607.14 L1206.93,609.82 L1207.24,609.82 L1207.24,607.14 Z" fill="none" />
<path d="M1207.85,608.1 A4.18,4.18 0 1,0 1207.87,608.5" fill="none" />
<path d="M1207.48,606.76 L1207.48,610.3" fill="none" />
<path d="M1162.22,560.39 L1162.22,570 L1156.06,570 L1156.06,560.39 Z" fill="none" />
<path d="M1156.06,567.29 L1156.06,563.1 L1154.55,563.1 L1154.55,567.29 Z" fill="none" />
<path d="M1155.85,566.53 L1155.85,563.86 L1155.53,563.86 L1155.53,566.53 Z" fill="none" />
<path d="M1163.26,564.95 A4.18,4.18 0 0,0 1163.25,564.89" fill="none" />
<path d="M1155.29,566.92 L1155.29,563.38" fill="none" />
<path d="M1161.61,606.14 L1153.21,606.14 L1153.21,591.73 L1161.61,591.73 Z" fill="none" />
<path d="M1155.31,606.14 L1159.51,606.14 L1159.51,607.65 L1155.31,607.65 Z" fill="none" />
<path d="M1156.07,606.36 L1158.75,606.36 L1158.75,606.67 L1156.07,606.67 Z" fill="none" />
<path d="M1161.62,602.81 A4.18,4.18 0 0,0 1161.62,602.74" fill="none" />
<path d="M1155.68,606.91 L1159.23,606.91" fill="none" />
<path d="M1181.06,653.66 L1181.06,660.67 L1197.36,660.67 L1197.36,653.66 Z" fill="none" />
<path d="M1184.92,378.03 L1184.92,358.82 L1193.32,358.82 L1193.32,378.03 Z" fill="none" />
<path d="M1184.92,334.8 L1184.92,315.59 L1193.32,315.59 L1193.32,334.8 Z" fill="none" />
<path d="M1207.73,378.03 L1207.73,358.82 L1216.13,358.82 L1216.13,378.03 Z" fill="none" />
<path d="M1207.73,334.8 L1207.73,315.59 L1216.13,315.59 L1216.13,334.8 Z" fill="none" />
<path d="M1331.43,343.82 L1327.23,343.82 L1327.23,342.31 L1331.43,342.31 Z" fill="none" />
<path d="M1330.67,343.61 L1327.99,343.61 L1327.99,343.29 L1330.67,343.29 Z" fill="none" />
<path d="M1333.47,346.76 A4.18,4.18 0 0,0 1333.47,346.7" fill="none" />
<path d="M1331.06,343.05 L1327.52,343.05" fill="none" />
<path d="M1223.4,317.1 L1219.2,317.1 L1219.2,315.59 L1223.4,315.59 Z" fill="none" />
<path d="M1222.64,316.89 L1219.96,316.89 L1219.96,316.57 L1222.64,316.57 Z" fill="none" />
<path d="M1225.43,320.04 A4.18,4.18 0 0,0 1225.43,319.98" fill="none" />
<path d="M1223.03,316.34 L1219.48,316.34" fill="none" />
<path d="M1223.25,360.33 L1219.05,360.33 L1219.05,358.82 L1223.25,358.82 Z" fill="none" />
<path d="M1222.49,360.12 L1219.81,360.12 L1219.81,359.8 L1222.49,359.8 Z" fill="none" />
<path d="M1225.28,363.27 A4.18,4.18 0 0,0 1225.28,363.21" fill="none" />
<path d="M1222.88,359.56 L1219.33,359.56" fill="none" />
<path d="M1181.74,317.1 L1177.55,317.1 L1177.55,315.59 L1181.74,315.59 Z" fill="none" />
<path d="M1180.98,316.89 L1178.31,316.89 L1178.31,316.57 L1180.98,316.57 Z" fill="none" />
<path d="M1183.78,320.04 A4.18,4.18 0 0,0 1183.78,319.98" fill="none" />
<path d="M1181.37,316.34 L1177.83,316.34" fill="none" />
<path d="M1181.59,360.33 L1177.4,360.33 L1177.4,358.82 L1181.59,358.82 Z" fill="none" />
<path d="M1180.83,360.12 L1178.16,360.12 L1178.16,359.8 L1180.83,359.8 Z" fill="none" />
<path d="M1183.63,363.27 A4.18,4.18 0 0,0 1183.63,363.21" fill="none" />
<path d="M1181.22,359.56 L1177.68,359.56" fill="none" />
<path d="M1691.71,629.2 L1700.11,629.2 L1700.11,643.61 L1691.71,643.61 Z" fill="none" />
<path d="M1693.76,629.2 L1689.56,629.2 L1689.56,627.69 L1693.76,627.69 Z" fill="none" />
<path d="M1693,628.99 L1690.32,628.99 L1690.32,628.67 L1693,628.67 Z" fill="none" />
<path d="M1695.79,632.14 A4.18,4.18 0 0,0 1695.79,632.08" fill="none" />
<path d="M1693.38,628.44 L1689.84,628.44" fill="none" />
<path d="M1691.71,643.61 L1683.32,643.61 L1683.32,629.2 L1691.71,629.2 Z" fill="none" />
<path d="M529.05,212.97 L529.05,222.57 L509.84,222.57 L509.84,212.97 Z" fill="none" />
<path d="M475.97,223.63 L466.36,223.63 L466.36,204.42 L475.97,204.42 Z" fill="none" />
<path d="M1440.15,332.84 L1440.15,324.45 L1454.56,324.45 L1454.56,332.84 Z" fill="none" />
<path d="M1440.15,358.98 L1440.15,350.59 L1454.56,350.59 L1454.56,358.98 Z" fill="none" />
<path d="M1402.93,332.84 L1402.93,324.45 L1417.33,324.45 L1417.33,332.84 Z" fill="none" />
<path d="M1402.93,358.98 L1402.93,350.59 L1417.33,350.59 L1417.33,358.98 Z" fill="none" />
<path d="M1454.56,326.55 L1454.56,330.74 L1456.07,330.74 L1456.07,326.55 Z" fill="none" />
<path d="M1454.77,327.31 L1454.77,329.98 L1455.09,329.98 L1455.09,327.31 Z" fill="none" />
<path d="M1455.69,328.26 A4.18,4.18 0 1,0 1455.72,328.66" fill="none" />
<path d="M1455.32,326.92 L1455.32,330.46" fill="none" />
<path d="M1454.56,352.69 L1454.56,356.89 L1456.07,356.89 L1456.07,352.69 Z" fill="none" />
<path d="M1454.77,353.45 L1454.77,356.13 L1455.09,356.13 L1455.09,353.45 Z" fill="none" />
<path d="M1455.69,354.41 A4.18,4.18 0 1,0 1455.72,354.8" fill="none" />
<path d="M1455.32,353.06 L1455.32,356.6" fill="none" />
<path d="M1402.93,352.69 L1402.93,356.89 L1401.41,356.89 L1401.41,352.69 Z" fill="none" />
<path d="M1402.71,353.45 L1402.71,356.13 L1402.39,356.13 L1402.39,353.45 Z" fill="none" />
<path d="M1410.12,354.63 A4.18,4.18 0 0,0 1410.12,354.57" fill="none" />
<path d="M1402.16,353.06 L1402.16,356.6" fill="none" />
<path d="M1402.93,326.55 L1402.93,330.74 L1401.41,330.74 L1401.41,326.55 Z" fill="none" />
<path d="M1402.71,327.31 L1402.71,329.98 L1402.39,329.98 L1402.39,327.31 Z" fill="none" />
<path d="M1410.12,328.49 A4.18,4.18 0 0,0 1410.12,328.43" fill="none" />
<path d="M1402.16,326.92 L1402.16,330.46" fill="none" />
<path d="M1440.15,396.35 L1440.15,387.95 L1446.3,387.95 L1446.3,396.35 Z" fill="none" />
<path d="M1446.3,390.05 L1446.3,394.25 L1447.82,394.25 L1447.82,390.05 Z" fill="none" />
<path d="M1446.52,390.81 L1446.52,393.49 L1446.84,393.49 L1446.84,390.81 Z" fill="none" />
<path d="M1447.44,391.77 A4.18,4.18 0 1,0 1447.47,392.16" fill="none" />
<path d="M1447.07,390.42 L1447.07,393.97" fill="none" />
<path d="M1452.8,491.21 L1452.8,500.82 L1446.64,500.82 L1446.64,491.21 Z" fill="none" />
<path d="M1446.46,512.42 L1446.46,502.81 L1452.62,502.81 L1452.62,512.42 Z" fill="none" />
<path d="M1440.15,602.39 L1440.15,594 L1446.3,594 L1446.3,602.39 Z" fill="none" />
<path d="M1446.3,596.09 L1446.3,600.29 L1447.82,600.29 L1447.82,596.09 Z" fill="none" />
<path d="M1446.52,596.85 L1446.52,599.53 L1446.84,599.53 L1446.84,596.85 Z" fill="none" />
<path d="M1447.44,597.81 A4.18,4.18 0 1,0 1447.47,598.21" fill="none" />
<path d="M1447.07,596.47 L1447.07,600.01" fill="none" />
<path d="M1420.68,653.51 L1420.68,660.52 L1436.98,660.52 L1436.98,653.51 Z" fill="none" />
<path d="M1464.58,423.75 L1456.19,423.75 L1456.19,417.59 L1464.58,417.59 Z" fill="none" />
<path d="M1458.29,417.59 L1462.49,417.59 L1462.49,416.07 L1458.29,416.07 Z" fill="none" />
<path d="M1459.05,417.37 L1461.73,417.37 L1461.73,417.06 L1459.05,417.06 Z" fill="none" />
<path d="M1464.61,420.52 A4.18,4.18 0 0,0 1464.61,420.46" fill="none" />
<path d="M1458.66,416.82 L1462.2,416.82" fill="none" />
<path d="M1456.53,452.62 L1464.92,452.62 L1464.92,458.77 L1456.53,458.77 Z" fill="none" />
<path d="M1189.17,729.69 L1181.96,729.69 L1181.96,715.28 L1189.17,715.28 Z" fill="none" />
<path d="M1178.86,715.28 L1183.05,715.28 L1183.05,713.77 L1178.86,713.77 Z" fill="none" />
<path d="M1184.23,715.46 L1186.91,715.46 L1186.91,715.14 L1184.23,715.14 Z" fill="none" />
<path d="M1185.18,718.22 A4.18,4.18 0 0,0 1185.18,718.15" fill="none" />
<path d="M1183.84,714.51 L1187.38,714.51" fill="none" />
<path d="M1328.6,588.02 L1328.6,597.63 L1322.44,597.63 L1322.44,588.02 Z" fill="none" />
<path d="M1401.84,550.77 L1401.84,560.38 L1395.68,560.38 L1395.68,550.77 Z" fill="none" />
<path d="M1395.68,557.68 L1395.68,553.48 L1394.17,553.48 L1394.17,557.68 Z" fill="none" />
<path d="M1395.47,556.92 L1395.47,554.24 L1395.15,554.24 L1395.15,556.92 Z" fill="none" />
<path d="M1402.88,555.34 A4.18,4.18 0 0,0 1402.88,555.27" fill="none" />
<path d="M1394.92,557.3 L1394.92,553.76" fill="none" />
<path d="M1401.23,596.52 L1392.84,596.52 L1392.84,582.11 L1401.23,582.11 Z" fill="none" />
<path d="M1394.93,596.52 L1399.13,596.52 L1399.13,598.04 L1394.93,598.04 Z" fill="none" />
<path d="M1395.69,596.74 L1398.37,596.74 L1398.37,597.05 L1395.69,597.05 Z" fill="none" />
<path d="M1401.25,593.19 A4.18,4.18 0 0,0 1401.24,593.12" fill="none" />
<path d="M1395.31,597.29 L1398.85,597.29" fill="none" />
<path d="M1514.31,556.92 L1514.31,554.24 L1514,554.24 L1514,556.92 Z" fill="none" />
<path d="M1521.73,555.34 A4.18,4.18 0 0,0 1521.72,555.27" fill="none" />
<path d="M1513.78,596.52 L1517.98,596.52 L1517.98,598.04 L1513.78,598.04 Z" fill="none" />
<path d="M1514.54,596.74 L1517.22,596.74 L1517.22,597.05 L1514.54,597.05 Z" fill="none" />
<path d="M1520.09,593.19 A4.18,4.18 0 0,0 1520.09,593.12" fill="none" />
<path d="M524.67,59.13 L524.67,49.52 L543.88,49.52 L543.88,59.13 Z" fill="none" />
<path d="M481.38,59.13 L481.38,49.52 L500.6,49.52 L500.6,59.13 Z" fill="none" />
<path d="M638.31,836.55 L638.31,831.17 L647.08,831.17 L647.08,836.55 Z" fill="none" />
<path d="M640.32,836.24 L640.32,835.47 L645.55,835.47 L645.55,836.24 Z" fill="none" />
<path d="M640.26,835.14 L640.26,833.92 L645.49,833.92 L645.49,835.14 Z" fill="none" />
<path d="M640.11,835.32 L640.11,833.74 L645.64,833.74 L645.64,835.32 Z" fill="none" />
<path d="M1159.13,836.99 L1159.13,831.61 L1167.9,831.61 L1167.9,836.99 Z" fill="none" />
<path d="M1161.13,836.68 L1161.13,835.91 L1166.37,835.91 L1166.37,836.68 Z" fill="none" />
<path d="M1161.07,835.58 L1161.07,834.36 L1166.31,834.36 L1166.31,835.58 Z" fill="none" />
<path d="M1160.93,835.76 L1160.93,834.18 L1166.46,834.18 L1166.46,835.76 Z" fill="none" />
<path d="M272.42,837.02 L272.42,831.64 L281.19,831.64 L281.19,837.02 Z" fill="none" />
<path d="M274.42,836.7 L274.42,835.93 L279.66,835.93 L279.66,836.7 Z" fill="none" />
<path d="M274.36,835.61 L274.36,834.39 L279.6,834.39 L279.6,835.61 Z" fill="none" />
<path d="M274.22,835.78 L274.22,834.2 L279.75,834.2 L279.75,835.78 Z" fill="none" />
<path d="M736.64,219.27 L731.26,219.29 L731.22,210.52 L736.6,210.5 Z" fill="none" />
<path d="M736.31,217.27 L735.54,217.27 L735.52,212.03 L736.29,212.03 Z" fill="none" />
<path d="M735.22,217.33 L734,217.33 L733.98,212.1 L735.2,212.09 Z" fill="none" />
<path d="M735.4,217.48 L733.81,217.48 L733.79,211.95 L735.37,211.94 Z" fill="none" />
<path d="M704.76,131.67 L704.76,137.05 L695.99,137.05 L695.99,131.67 Z" fill="none" />
<path d="M702.75,131.98 L702.75,132.75 L697.52,132.75 L697.52,131.98 Z" fill="none" />
<path d="M702.81,133.08 L702.81,134.3 L697.58,134.3 L697.58,133.08 Z" fill="none" />
<path d="M702.96,132.9 L702.96,134.49 L697.43,134.49 L697.43,132.9 Z" fill="none" />
<path d="M522.19,317.15 L522.19,311.78 L530.96,311.78 L530.96,317.15 Z" fill="none" />
<path d="M524.19,316.84 L524.19,316.07 L529.43,316.07 L529.43,316.84 Z" fill="none" />
<path d="M524.13,315.75 L524.13,314.52 L529.37,314.52 L529.37,315.75 Z" fill="none" />
<path d="M523.99,315.92 L523.99,314.34 L529.52,314.34 L529.52,315.92 Z" fill="none" />
<path d="M1642.71,609.1 L1642.71,614.48 L1633.94,614.48 L1633.94,609.1 Z" fill="none" />
<path d="M1640.7,609.41 L1640.7,610.18 L1635.47,610.18 L1635.47,609.41 Z" fill="none" />
<path d="M1640.76,610.5 L1640.76,611.73 L1635.52,611.73 L1635.52,610.5 Z" fill="none" />
<path d="M1640.91,610.33 L1640.91,611.91 L1635.38,611.91 L1635.38,610.33 Z" fill="none" />
<path d="M1636.79,837.22 L1636.79,831.84 L1645.57,831.84 L1645.57,837.22 Z" fill="none" />
<path d="M1638.8,836.9 L1638.8,836.13 L1644.03,836.13 L1644.03,836.9 Z" fill="none" />
<path d="M1638.74,835.81 L1638.74,834.59 L1643.98,834.59 L1643.98,835.81 Z" fill="none" />
<path d="M1638.59,835.98 L1638.59,834.4 L1644.13,834.4 L1644.13,835.98 Z" fill="none" />
<path d="M1424.41,318.83 L1424.41,313.45 L1433.19,313.45 L1433.19,318.83 Z" fill="none" />
<path d="M1426.42,318.51 L1426.42,317.74 L1431.65,317.74 L1431.65,318.51 Z" fill="none" />
<path d="M1426.36,317.42 L1426.36,316.2 L1431.6,316.2 L1431.6,317.42 Z" fill="none" />
<path d="M1426.21,317.6 L1426.21,316.01 L1431.75,316.01 L1431.75,317.6 Z" fill="none" />
<path d="M1304.12,318.75 L1304.12,313.37 L1312.89,313.37 L1312.89,318.75 Z" fill="none" />
<path d="M1306.12,318.44 L1306.12,317.67 L1311.35,317.67 L1311.35,318.44 Z" fill="none" />
<path d="M1306.06,317.34 L1306.06,316.12 L1311.3,316.12 L1311.3,317.34 Z" fill="none" />
<path d="M1305.91,317.52 L1305.91,315.94 L1311.45,315.94 L1311.45,317.52 Z" fill="none" />
<path d="M1196.14,318.83 L1196.14,313.45 L1204.91,313.45 L1204.91,318.83 Z" fill="none" />
<path d="M1198.15,318.51 L1198.15,317.74 L1203.38,317.74 L1203.38,318.51 Z" fill="none" />
<path d="M1198.09,317.42 L1198.09,316.2 L1203.33,316.2 L1203.33,317.42 Z" fill="none" />
<path d="M1197.94,317.6 L1197.94,316.01 L1203.47,316.01 L1203.47,317.6 Z" fill="none" />
<path d="M1181.04,275.21 L1181.04,269.83 L1189.82,269.83 L1189.82,275.21 Z" fill="none" />
<path d="M1183.05,274.89 L1183.05,274.12 L1188.28,274.12 L1188.28,274.89 Z" fill="none" />
<path d="M1182.99,273.8 L1182.99,272.58 L1188.23,272.58 L1188.23,273.8 Z" fill="none" />
<path d="M1182.84,273.98 L1182.84,272.39 L1188.38,272.39 L1188.38,273.98 Z" fill="none" />
<path d="M562.47,85.86 L562.47,91.24 L553.7,91.24 L553.7,85.86 Z" fill="none" />
<path d="M560.46,86.18 L560.46,86.95 L555.23,86.95 L555.23,86.18 Z" fill="none" />
<path d="M560.52,87.27 L560.52,88.49 L555.29,88.49 L555.29,87.27 Z" fill="none" />
<path d="M560.67,87.1 L560.67,88.68 L555.14,88.68 L555.14,87.1 Z" fill="none" />
<path d="M317.28,262.57 L311.9,262.57 L311.9,253.8 L317.28,253.8 Z" fill="none" />
<path d="M316.46,260.33 L315.69,260.33 L315.69,255.09 L316.46,255.09 Z" fill="none" />
<path d="M315.37,260.39 L314.14,260.39 L314.14,255.15 L315.37,255.15 Z" fill="none" />
<path d="M315.54,260.53 L313.96,260.53 L313.96,255 L315.54,255 Z" fill="none" />
<path d="M735.46,461.8 L735.46,467.18 L726.69,467.18 L726.69,461.8 Z" fill="none" />
<path d="M733.46,462.11 L733.46,462.88 L728.22,462.88 L728.22,462.11 Z" fill="none" />
<path d="M733.52,463.2 L733.52,464.43 L728.28,464.43 L728.28,463.2 Z" fill="none" />
<path d="M733.66,463.03 L733.66,464.61 L728.13,464.61 L728.13,463.03 Z" fill="none" />
<path d="M1126.42,462.66 L1126.42,468.04 L1117.65,468.04 L1117.65,462.66 Z" fill="none" />
<path d="M1124.42,462.98 L1124.42,463.75 L1119.18,463.75 L1119.18,462.98 Z" fill="none" />
<path d="M1124.48,464.07 L1124.48,465.29 L1119.24,465.29 L1119.24,464.07 Z" fill="none" />
<path d="M1124.62,463.9 L1124.62,465.48 L1119.09,465.48 L1119.09,463.9 Z" fill="none" />
<path d="M574.92,26.11 L574.92,31.49 L556.27,31.49 L556.27,26.11 Z" fill="none" />
<path d="M568.08,26.42 L568.08,27.19 L562.84,27.19 L562.84,26.42 Z" fill="none" />
<path d="M568.14,27.52 L568.14,28.74 L562.9,28.74 L562.9,27.52 Z" fill="none" />
<path d="M568.28,27.34 L568.28,28.92 L562.75,28.92 L562.75,27.34 Z" fill="none" />
<path d="M1737.37,612.53 L1745.76,612.53 L1745.76,618.69 L1737.37,618.69 Z" fill="none" />
<path d="M610.1,276.27 L610.1,281.65 L601.33,281.65 L601.33,276.27 Z" fill="none" />
<path d="M608.1,276.59 L608.1,277.36 L602.86,277.36 L602.86,276.59 Z" fill="none" />
<path d="M608.16,277.68 L608.16,278.9 L602.92,278.9 L602.92,277.68 Z" fill="none" />
<path d="M608.3,277.5 L608.3,279.09 L602.77,279.09 L602.77,277.5 Z" fill="none" />
<path d="M682.78,397.85 L677.4,397.88 L677.36,389.1 L682.74,389.08 Z" fill="none" />
<path d="M682.45,395.85 L681.69,395.85 L681.66,390.62 L682.43,390.61 Z" fill="none" />
<path d="M681.36,395.91 L680.14,395.92 L680.12,390.68 L681.34,390.68 Z" fill="none" />
<path d="M681.54,396.06 L679.95,396.06 L679.93,390.53 L681.51,390.53 Z" fill="none" />
<path d="M1317.51,383.06 L1317.51,374.67 L1331.92,374.67 L1331.92,383.06 Z" fill="none" />
<path d="M1317.68,402.76 L1317.68,394.37 L1332.09,394.37 L1332.09,402.76 Z" fill="none" />
<path d="M615.66,747.25 L615.66,741.87 L624.43,741.87 L624.43,747.25 Z" fill="none" />
<path d="M1728.03,629.2 L1736.42,629.2 L1736.42,643.61 L1728.03,643.61 Z" fill="none" />
<path d="M1730.07,629.2 L1725.87,629.2 L1725.87,627.69 L1730.07,627.69 Z" fill="none" />
<path d="M1729.31,628.99 L1726.63,628.99 L1726.63,628.67 L1729.31,628.67 Z" fill="none" />
<path d="M1732.11,632.14 A4.18,4.18 0 0,0 1732.11,632.08" fill="none" />
<path d="M1729.7,628.44 L1726.16,628.44" fill="none" />
<path d="M1728.03,643.61 L1719.63,643.61 L1719.63,629.2 L1728.03,629.2 Z" fill="none" />
<path d="M1317.51,432.31 L1317.51,423.91 L1331.92,423.91 L1331.92,432.31 Z" fill="none" />
<path d="M1317.68,450.58 L1317.68,442.18 L1332.09,442.18 L1332.09,450.58 Z" fill="none" />
<path d="M1354.09,441.7 L1354.09,433.3 L1360.25,433.3 L1360.25,441.7 Z" fill="none" />
<path d="M1360.25,435.4 L1360.25,439.6 L1361.76,439.6 L1361.76,435.4 Z" fill="none" />
<path d="M1360.46,436.16 L1360.46,438.84 L1360.78,438.84 L1360.78,436.16 Z" fill="none" />
<path d="M1361.39,437.12 A4.18,4.18 0 1,0 1361.41,437.51" fill="none" />
<path d="M1361.02,435.77 L1361.02,439.32" fill="none" />
<path d="M1328.34,517.07 L1319.95,517.07 L1319.95,510.91 L1328.34,510.91 Z" fill="none" />
<path d="M1396.9,505.19 L1388.5,505.19 L1388.5,499.03 L1396.9,499.03 Z" fill="none" />
<path d="M1449.37,477.1 L1440.97,477.1 L1440.97,470.94 L1449.37,470.94 Z" fill="none" />
<path d="M1214.61,517.27 L1214.61,526.88 L1208.45,526.88 L1208.45,517.27 Z" fill="none" />
<path d="M1208.27,538.47 L1208.27,528.87 L1214.43,528.87 L1214.43,538.47 Z" fill="none" />
<path d="M1226.39,449.8 L1218,449.8 L1218,443.64 L1226.39,443.64 Z" fill="none" />
<path d="M1220.1,443.64 L1224.29,443.64 L1224.29,442.13 L1220.1,442.13 Z" fill="none" />
<path d="M1220.86,443.43 L1223.53,443.43 L1223.53,443.11 L1220.86,443.11 Z" fill="none" />
<path d="M1226.42,446.58 A4.18,4.18 0 0,0 1226.42,446.52" fill="none" />
<path d="M1220.47,442.88 L1224.01,442.88" fill="none" />
<path d="M1218.34,478.67 L1226.73,478.67 L1226.73,484.83 L1218.34,484.83 Z" fill="none" />
<path d="M1211.17,503.15 L1202.78,503.15 L1202.78,496.99 L1211.17,496.99 Z" fill="none" />
<path d="M1331.63,532.28 L1331.63,541.88 L1325.47,541.88 L1325.47,532.28 Z" fill="none" />
<path d="M1325.29,553.48 L1325.29,543.87 L1331.44,543.87 L1331.44,553.48 Z" fill="none" />
<path d="M1348.81,530.07 L1340.42,530.07 L1340.42,523.91 L1348.81,523.91 Z" fill="none" />
<path d="M1470.44,490.46 L1462.05,490.46 L1462.05,484.31 L1470.44,484.31 Z" fill="none" />
<path d="M1231.57,515.11 L1223.18,515.11 L1223.18,508.95 L1231.57,508.95 Z" fill="none" />
</g>
<g id="layer-machines" stroke="#06b6d4" stroke-width="1.2" stroke-linecap="round" stroke-linejoin="round" fill="none">
<path d="M645.67,53.36 L645.67,72.76" fill="none" />
<path d="M645.87,53.36 L645.87,72.76" fill="none" />
<path d="M645.67,72.76 L659.27,72.76" fill="none" />
<path d="M659.27,72.76 L659.27,53.36" fill="none" />
<path d="M659.27,53.36 L645.67,53.36" fill="none" />
<path d="M658.5,53.36 L658.5,51.85" fill="none" />
<path d="M657.39,51.85 L657.39,54.47" fill="none" />
<path d="M657.39,54.47 L658.5,54.47" fill="none" />
<path d="M658.5,54.47 L658.5,53.36" fill="none" />
<path d="M626.09,53.6 L626.09,73" fill="none" />
<path d="M626.29,53.6 L626.29,73" fill="none" />
<path d="M639.69,73 L639.69,53.6" fill="none" />
<path d="M639.69,53.6 L626.09,53.6" fill="none" />
<path d="M638.92,53.6 L638.92,52.1" fill="none" />
<path d="M637.81,52.1 L637.81,54.72" fill="none" />
<path d="M637.81,54.72 L638.92,54.72" fill="none" />
<path d="M638.92,54.72 L638.92,53.6" fill="none" />
<circle cx="671.85" cy="54.8" r="6" fill="none" />
<path d="M674.57,73.52 L674.57,66.92" fill="none" />
<path d="M674.57,66.92 L666.27,66.92" fill="none" />
<path d="M666.27,66.92 L666.27,73.52" fill="none" />
<path d="M666.47,66.92 L666.47,73.52" fill="none" />
<path d="M666.27,73.52 L674.57,73.52" fill="none" />
<path d="M657.39,51.85 L658.5,51.85" fill="none" />
<path d="M650.38,50.9 L650.38,51.23" fill="none" />
<path d="M649.82,50.03 L649.2,50.03" fill="none" />
<path d="M649.08,50.03 L649.03,50.03" fill="none" />
<path d="M655.66,56.52 A6.67,6.67 0 0,0 655.66,56.52" fill="none" />
<path d="M648.97,50.03 L649.03,50.03" fill="none" />
<path d="M649.07,50.03 L649.03,50.03" fill="none" />
<path d="M648.94,50.03 L648.95,50.03" fill="none" />
<path d="M648.94,50.31 L648.94,50.31" fill="none" />
<path d="M648.9,50.31 L648.94,50.31" fill="none" />
<path d="M698.89,98.87 A49.93,49.93 0 0,0 698.89,98.87" fill="none" />
<path d="M648.94,50.31 L648.95,50.31" fill="none" />
<path d="M648.94,49.8 L648.94,49.91" fill="none" />
<path d="M648.94,49.8 L648.94,50.03" fill="none" />
<path d="M648.95,50.44 L648.95,50.34" fill="none" />
<path d="M649.46,50.59 A0.16,0.16 0 0,0 649.46,50.59" fill="none" />
<path d="M649.08,50.31 L649.08,50.34" fill="none" />
<path d="M650.04,49.77 L650.48,49.77" fill="none" />
<path d="M650.51,49.91 L650.06,49.91" fill="none" />
<path d="M650.52,49.9 L650.52,49.81" fill="none" />
<path d="M650.52,49.81 A0.04,0.04 0 0,0 650.52,49.81" fill="none" />
<path d="M650.52,49.9 A0,0 0 1,0 650.52,49.9" fill="none" />
<circle cx="657.91" cy="51.06" r="0.19" fill="none" />
<path d="M657.91,50.87 L652.42,50.87" fill="none" />
<path d="M652.42,51.25 L657.91,51.25" fill="none" />
<path d="M650.84,51.28 L650.92,51.28" fill="none" />
<path d="M650.84,50.85 L650.92,50.85" fill="none" />
<path d="M650.84,50.85 L650.84,51.28" fill="none" />
<path d="M650.92,51.28 L650.92,50.85" fill="none" />
<path d="M650.77,51.25 L650.84,51.25" fill="none" />
<path d="M650.84,50.88 L650.77,50.88" fill="none" />
<path d="M650.92,51.25 L650.99,51.25" fill="none" />
<path d="M650.99,50.88 L650.92,50.88" fill="none" />
<path d="M651.17,50.72 L651.33,50.72" fill="none" />
<path d="M651.35,50.81 A0.25,0.25 0 0,0 651.35,50.81" fill="none" />
<path d="M651.64,50.8 A0.25,0.25 0 0,0 651.64,50.8" fill="none" />
<path d="M651.17,51.41 L651.33,51.41" fill="none" />
<path d="M651.64,51.3 A0.25,0.25 0 0,0 651.64,51.3" fill="none" />
<path d="M651.35,51.29 A0.25,0.25 0 0,0 651.35,51.29" fill="none" />
<path d="M651.15,51.32 L651.15,50.81" fill="none" />
<path d="M651.35,51.32 L651.35,50.81" fill="none" />
<path d="M651.15,50.82 L651.01,50.82" fill="none" />
<path d="M651.15,51.31 L651.01,51.31" fill="none" />
<path d="M651.35,50.82 L651.6,50.82" fill="none" />
<path d="M651.35,51.31 L651.6,51.31" fill="none" />
<path d="M650.99,51.06 L650.99,50.88" fill="none" />
<path d="M650.99,51.24 L650.99,51.06" fill="none" />
<path d="M651.34,50.88 A0.17,0.17 0 0,0 651.34,50.88" fill="none" />
<path d="M651.34,51.23 A0.17,0.17 0 0,0 651.34,51.23" fill="none" />
<path d="M652.42,50.81 L652.42,50.94" fill="none" />
<path d="M652.42,50.88 L652.42,51.13" fill="none" />
<path d="M652.42,51.19 L652.42,51.31" fill="none" />
<path d="M652.42,51.31 L652.25,51.31" fill="none" />
<path d="M652.42,50.81 L652.25,50.81" fill="none" />
<path d="M651.89,50.59 L652.01,50.59" fill="none" />
<path d="M651.89,50.65 L651.89,50.59" fill="none" />
<path d="M652.01,50.59 L652.13,50.59" fill="none" />
<path d="M652.13,50.65 L652.13,50.59" fill="none" />
<path d="M650.91,50.47 L651.58,50.47" fill="none" />
<path d="M650.91,50.47 L650.91,50.43" fill="none" />
<path d="M652.25,50.82 L652.25,51.31" fill="none" />
<path d="M651.6,50.47 L651.84,50.72" fill="none" />
<path d="M651.6,50.49 A0.02,0.02 0 0,0 651.6,50.49" fill="none" />
<path d="M651.61,50.44 L651.84,50.67" fill="none" />
<path d="M651.59,50.43 L650.91,50.43" fill="none" />
<path d="M651.62,50.46 A0.02,0.02 0 0,0 651.62,50.46" fill="none" />
<path d="M651.84,50.68 L651.84,50.72" fill="none" />
<path d="M652.18,50.65 L651.84,50.65" fill="none" />
<path d="M651.84,50.68 L651.84,50.67" fill="none" />
<path d="M651.77,51.32 L652.25,51.32" fill="none" />
<path d="M652.25,50.81 L652.23,50.81" fill="none" />
<path d="M652.21,50.78 L652.21,50.68" fill="none" />
<path d="M651.81,50.69 L651.81,50.78" fill="none" />
<path d="M652.25,51.31 A0.01,0.01 0 1,0 652.25,51.31" fill="none" />
<path d="M652.25,50.82 A0.01,0.01 0 0,0 652.25,50.82" fill="none" />
<path d="M651.81,50.78 A0.02,0.02 0 1,0 651.81,50.78" fill="none" />
<path d="M652.25,50.78 A0.02,0.02 0 0,0 652.25,50.78" fill="none" />
<path d="M652.21,50.68 A0.02,0.02 0 0,0 652.21,50.68" fill="none" />
<path d="M651.86,50.68 A0.02,0.02 0 0,0 651.86,50.68" fill="none" />
<path d="M650.7,51.28 L650.7,51.28" fill="none" />
<path d="M650.71,51.28 L650.7,51.28" fill="none" />
<path d="M650.77,50.87 L650.77,51.26" fill="none" />
<path d="M650.54,51.28 L650.7,51.28" fill="none" />
<path d="M650.77,51.27 A0.03,0.03 0 0,0 650.77,51.27" fill="none" />
<path d="M650.77,50.86 A0.03,0.03 0 0,0 650.77,50.86" fill="none" />
<path d="M650.73,50.82 A0.03,0.03 0 0,0 650.73,50.82" fill="none" />
<path d="M650.73,51.31 A0.03,0.03 0 0,0 650.73,51.31" fill="none" />
<path d="M650.7,50.85 L650.54,50.85" fill="none" />
<path d="M650.59,51.23 A0.05,0.05 0 0,0 650.59,51.23" fill="none" />
<path d="M650.59,50.9 A0.05,0.05 0 0,0 650.59,50.9" fill="none" />
<path d="M650.77,51.27 L650.77,51.26" fill="none" />
<path d="M650.77,50.87 L650.77,50.86" fill="none" />
<path d="M650.5,50.87 L650.46,50.92" fill="none" />
<path d="M650.46,51.21 L650.5,51.26" fill="none" />
<path d="M650.47,51.23 A0.03,0.03 0 0,0 650.47,51.23" fill="none" />
<path d="M650.47,50.89 A0.03,0.03 0 0,0 650.47,50.89" fill="none" />
<path d="M658.1,50.88 A0.2,0.2 0 0,0 658.1,50.88" fill="none" />
<path d="M657.81,50.47 L657.81,50.43" fill="none" />
<path d="M657.81,50.43 L658,50.43" fill="none" />
<path d="M658.16,51.05 A0.26,0.26 0 1,0 658.16,51.05" fill="none" />
<path d="M657.81,50.47 L657.81,50.72" fill="none" />
<path d="M658,50.43 L658,50.72" fill="none" />
<path d="M658,50.47 L658,50.47" fill="none" />
<path d="M657.81,50.47 L657.81,50.47" fill="none" />
<path d="M658.08,50.65 L658,50.65" fill="none" />
<path d="M657.81,50.65 L657.73,50.65" fill="none" />
<path d="M658.1,50.89 L658.1,50.68" fill="none" />
<path d="M657.71,50.68 L657.71,50.87" fill="none" />
<path d="M658.15,50.89 A0.02,0.02 0 0,0 658.15,50.89" fill="none" />
<path d="M658.1,50.68 A0.02,0.02 0 0,0 658.1,50.68" fill="none" />
<path d="M657.76,50.68 A0.02,0.02 0 0,0 657.76,50.68" fill="none" />
<path d="M651.6,51.31 L651.77,51.31" fill="none" />
<path d="M651.6,50.81 L651.77,50.81" fill="none" />
<path d="M651.77,50.82 L651.77,51.31" fill="none" />
<path d="M651.77,50.81 L651.79,50.81" fill="none" />
<path d="M651.81,50.78 L651.81,50.69" fill="none" />
<path d="M651.78,51.31 A0.01,0.01 0 0,0 651.78,51.31" fill="none" />
<path d="M651.78,50.82 A0.01,0.01 0 0,0 651.78,50.82" fill="none" />
<path d="M651.81,50.78 A0.02,0.02 0 1,0 651.81,50.78" fill="none" />
<path d="M648.9,50.31 L648.9,50.03" fill="none" />
<path d="M649.7,50.9 L649.7,51.23" fill="none" />
<path d="M649.24,51.28 L649.17,51.28" fill="none" />
<path d="M649.24,50.85 L649.17,50.85" fill="none" />
<path d="M649.24,50.85 L649.24,51.28" fill="none" />
<path d="M649.17,51.28 L649.17,50.85" fill="none" />
<path d="M649.31,51.25 L649.24,51.25" fill="none" />
<path d="M649.24,50.88 L649.31,50.88" fill="none" />
<path d="M649.17,51.25 L649.09,51.25" fill="none" />
<path d="M649.09,50.88 L649.17,50.88" fill="none" />
<path d="M648.91,50.72 L648.75,50.72" fill="none" />
<path d="M649.23,50.8 A0.25,0.25 0 0,0 649.23,50.8" fill="none" />
<path d="M648.93,50.81 A0.25,0.25 0 0,0 648.93,50.81" fill="none" />
<path d="M648.91,51.41 L648.75,51.41" fill="none" />
<path d="M648.93,51.29 A0.25,0.25 0 0,0 648.93,51.29" fill="none" />
<path d="M648.93,51.32 L648.93,51.06" fill="none" />
<path d="M649.23,51.3 A0.25,0.25 0 0,0 649.23,51.3" fill="none" />
<path d="M648.93,51.06 L648.93,50.81" fill="none" />
<path d="M648.73,51.32 L648.73,51.06" fill="none" />
<path d="M648.73,51.06 L648.73,50.81" fill="none" />
<path d="M648.93,50.82 L649.08,50.82" fill="none" />
<path d="M648.93,51.31 L649.08,51.31" fill="none" />
<path d="M648.73,50.82 L648.59,50.82" fill="none" />
<path d="M648.73,51.31 L648.59,51.31" fill="none" />
<path d="M648.58,51.24 L648.58,51.27" fill="none" />
<path d="M648.58,51.06 L648.58,50.88" fill="none" />
<path d="M648.58,51.24 L648.58,51.06" fill="none" />
<path d="M649.09,51.06 L649.09,50.88" fill="none" />
<path d="M649.09,51.24 L649.09,51.06" fill="none" />
<path d="M649.09,50.89 A0.17,0.17 0 0,0 649.09,50.89" fill="none" />
<path d="M649.09,51.22 A0.17,0.17 0 0,0 649.09,51.22" fill="none" />
<path d="M648.92,50.88 A0.17,0.17 0 0,0 648.92,50.88" fill="none" />
<path d="M648.92,51.23 A0.17,0.17 0 0,0 648.92,51.23" fill="none" />
<path d="M648.48,50.88 L648.58,50.88" fill="none" />
<path d="M648.58,51.25 L648.48,51.25" fill="none" />
<path d="M648.59,51.31 L648.58,51.27" fill="none" />
<path d="M648.48,50.81 L648.48,50.94" fill="none" />
<path d="M648.48,50.94 L648.48,51.19" fill="none" />
<path d="M648.48,51.19 L648.48,51.31" fill="none" />
<path d="M648.48,51.31 L648.32,51.31" fill="none" />
<path d="M648.48,50.81 L648.32,50.81" fill="none" />
<path d="M647.95,50.59 L648.07,50.59" fill="none" />
<path d="M647.95,50.65 L647.95,50.59" fill="none" />
<path d="M648.07,50.59 L648.19,50.59" fill="none" />
<path d="M648.19,50.65 L648.19,50.59" fill="none" />
<path d="M646.97,50.47 L647.64,50.47" fill="none" />
<path d="M646.97,50.47 L646.97,50.43" fill="none" />
<path d="M648.32,50.82 L648.32,51.31" fill="none" />
<path d="M647.66,50.47 L647.9,50.72" fill="none" />
<path d="M647.67,50.49 A0.02,0.02 0 0,0 647.67,50.49" fill="none" />
<path d="M647.67,50.44 L647.9,50.67" fill="none" />
<path d="M647.65,50.43 L646.97,50.43" fill="none" />
<path d="M647.68,50.46 A0.02,0.02 0 0,0 647.68,50.46" fill="none" />
<path d="M647.9,50.68 L647.9,50.72" fill="none" />
<path d="M648.25,50.65 L647.9,50.65" fill="none" />
<path d="M647.9,50.68 L647.9,50.67" fill="none" />
<path d="M647.84,51.32 L648.31,51.32" fill="none" />
<path d="M648.31,50.81 L648.29,50.81" fill="none" />
<path d="M648.27,50.78 L648.27,50.68" fill="none" />
<path d="M647.88,50.69 L647.88,50.78" fill="none" />
<path d="M648.32,51.31 A0.01,0.01 0 1,0 648.32,51.31" fill="none" />
<path d="M648.32,50.82 A0.01,0.01 0 0,0 648.32,50.82" fill="none" />
<path d="M647.88,50.78 A0.02,0.02 0 1,0 647.88,50.78" fill="none" />
<path d="M648.27,50.68 A0.02,0.02 0 0,0 648.27,50.68" fill="none" />
<path d="M647.92,50.68 A0.02,0.02 0 0,0 647.92,50.68" fill="none" />
<path d="M649.38,51.28 L649.38,51.28" fill="none" />
<path d="M649.37,51.28 L649.38,51.28" fill="none" />
<path d="M649.31,50.87 L649.31,51.26" fill="none" />
<path d="M649.54,51.28 L649.38,51.28" fill="none" />
<path d="M649.36,51.27 A0.03,0.03 0 0,0 649.36,51.27" fill="none" />
<path d="M649.36,50.86 A0.03,0.03 0 0,0 649.36,50.86" fill="none" />
<path d="M649.41,50.82 A0.03,0.03 0 0,0 649.41,50.82" fill="none" />
<path d="M649.41,51.31 A0.03,0.03 0 0,0 649.41,51.31" fill="none" />
<path d="M649.38,50.85 L649.54,50.85" fill="none" />
<path d="M649.59,51.23 A0.05,0.05 0 0,0 649.59,51.23" fill="none" />
<path d="M649.59,50.9 A0.05,0.05 0 0,0 649.59,50.9" fill="none" />
<path d="M649.31,51.27 L649.31,51.26" fill="none" />
<path d="M649.31,50.87 L649.31,50.86" fill="none" />
<path d="M649.58,50.87 L649.62,50.92" fill="none" />
<path d="M649.62,51.21 L649.58,51.26" fill="none" />
<path d="M649.67,51.23 A0.03,0.03 0 0,0 649.67,51.23" fill="none" />
<path d="M649.67,50.89 A0.03,0.03 0 0,0 649.67,50.89" fill="none" />
<path d="M647.66,50.81 L647.66,50.94" fill="none" />
<path d="M647.66,50.94 L647.66,51.19" fill="none" />
<path d="M647.66,51.19 L647.66,51.31" fill="none" />
<path d="M647.66,51.31 L647.83,51.31" fill="none" />
<path d="M647.66,50.81 L647.83,50.81" fill="none" />
<path d="M647.83,50.82 L647.83,51.31" fill="none" />
<path d="M647.84,50.81 L647.85,50.81" fill="none" />
<path d="M647.88,50.78 L647.88,50.69" fill="none" />
<path d="M647.84,51.31 A0.01,0.01 0 0,0 647.84,51.31" fill="none" />
<path d="M647.84,50.82 A0.01,0.01 0 0,0 647.84,50.82" fill="none" />
<path d="M647.88,50.78 A0.02,0.02 0 1,0 647.88,50.78" fill="none" />
<path d="M650.3,51.05 A0.26,0.26 0 0,0 650.3,51.04" fill="none" />
<path d="M657.72,51.73 L657.72,51.25" fill="none" />
<path d="M658.09,51.73 L658.09,51.24" fill="none" />
<path d="M657.32,51.73 L657.32,51.85" fill="none" />
<path d="M657.32,51.73 L658.5,51.73" fill="none" />
<path d="M658.5,51.73 L658.5,51.85" fill="none" />
<path d="M658.5,51.85 L657.32,51.85" fill="none" />
<path d="M658.49,51.01 A0.59,0.59 0 1,0 658.5,51.05" fill="none" />
<path d="M649.64,51.2 L649.7,51.2" fill="none" />
<path d="M649.64,50.93 L649.7,50.93" fill="none" />
<path d="M650.43,51.2 L650.38,51.2" fill="none" />
<path d="M650.43,50.93 L650.38,50.93" fill="none" />
<path d="M651.6,51.31 L651.6,50.81" fill="none" />
<path d="M658.5,51.05 A0.59,0.59 0 0,0 658.49,51.02" fill="none" />
<path d="M637.81,51.61 L638.92,51.61" fill="none" />
<circle cx="638.33" cy="50.82" r="0.19" fill="none" />
<path d="M638.53,50.64 A0.2,0.2 0 0,0 638.53,50.63" fill="none" />
<path d="M638.23,50.22 L638.23,50.19" fill="none" />
<path d="M638.23,50.19 L638.43,50.19" fill="none" />
<path d="M638.59,50.8 A0.26,0.26 0 1,0 638.59,50.81" fill="none" />
<path d="M638.23,50.23 L638.23,50.47" fill="none" />
<path d="M638.43,50.19 L638.43,50.47" fill="none" />
<path d="M638.43,50.22 L638.43,50.23" fill="none" />
<path d="M638.23,50.23 L638.23,50.22" fill="none" />
<path d="M638.51,50.41 L638.43,50.41" fill="none" />
<path d="M638.23,50.41 L638.16,50.41" fill="none" />
<path d="M638.53,50.65 L638.53,50.43" fill="none" />
<path d="M638.14,50.43 L638.14,50.63" fill="none" />
<path d="M638.57,50.65 A0.02,0.02 0 0,0 638.57,50.65" fill="none" />
<path d="M638.53,50.43 A0.02,0.02 0 0,0 638.53,50.43" fill="none" />
<path d="M638.18,50.43 A0.02,0.02 0 0,0 638.18,50.43" fill="none" />
<path d="M638.14,51.48 L638.14,51.01" fill="none" />
<path d="M638.52,51.48 L638.52,50.99" fill="none" />
<path d="M637.74,51.48 L637.74,51.61" fill="none" />
<path d="M637.74,51.48 L638.92,51.48" fill="none" />
<path d="M638.92,51.48 L638.92,51.61" fill="none" />
<path d="M638.92,51.61 L637.74,51.61" fill="none" />
<path d="M638.92,50.77 A0.59,0.59 0 1,0 638.92,50.8" fill="none" />
<path d="M638.92,50.8 A0.59,0.59 0 0,0 638.92,50.77" fill="none" />
<path d="M672.4,60.83 L671.29,60.87" fill="none" />
<circle cx="671.91" cy="61.64" r="0.19" fill="none" />
<path d="M672.11,61.8 A0.2,0.2 0 0,0 672.11,61.8" fill="none" />
<path d="M672.03,62.23 L672.03,62.26" fill="none" />
<path d="M672.03,62.26 L671.83,62.27" fill="none" />
<path d="M672.16,61.63 A0.26,0.26 0 0,0 672.16,61.61" fill="none" />
<path d="M672.03,62.22 L672.02,61.98" fill="none" />
<path d="M671.83,62.27 L671.82,61.99" fill="none" />
<path d="M671.83,62.24 L671.83,62.23" fill="none" />
<path d="M672.03,62.22 L672.03,62.23" fill="none" />
<path d="M671.75,62.05 L671.82,62.05" fill="none" />
<path d="M672.02,62.04 L672.09,62.04" fill="none" />
<path d="M671.72,61.82 L671.72,62.03" fill="none" />
<path d="M672.12,62.02 L672.11,61.82" fill="none" />
<path d="M671.72,61.82 A0.02,0.02 0 0,0 671.72,61.82" fill="none" />
<path d="M671.77,62.03 A0.02,0.02 0 0,0 671.77,62.03" fill="none" />
<path d="M672.12,62.01 A0.02,0.02 0 1,0 672.12,62.02" fill="none" />
<path d="M672.07,60.97 L672.09,61.44" fill="none" />
<path d="M671.69,60.98 L671.71,61.47" fill="none" />
<path d="M672.47,60.95 L672.47,60.83" fill="none" />
<path d="M672.47,60.95 L671.29,61" fill="none" />
<path d="M671.29,61 L671.29,60.87" fill="none" />
<path d="M671.29,60.87 L672.47,60.83" fill="none" />
<path d="M672.5,61.62 A0.59,0.59 0 0,0 672.49,61.59" fill="none" />
<path d="M672.49,61.59 A0.59,0.59 0 1,0 672.5,61.62" fill="none" />
<path d="M647.85,50.81 L638.59,50.81" fill="none" />
<path d="M638.52,51.19 L647.85,51.19" fill="none" />
<path d="M658.04,51.28 L664.84,51.28" fill="none" />
<path d="M665.22,50.9 L657.66,50.9" fill="none" />
<path d="M665.86,55.54 L665.86,54.43" fill="none" />
<circle cx="665.08" cy="55.02" r="0.19" fill="none" />
<path d="M665.1,55.01 A0.2,0.2 0 0,0 665.1,55.01" fill="none" />
<path d="M664.48,55.12 L664.45,55.12" fill="none" />
<path d="M664.45,55.12 L664.45,54.92" fill="none" />
<path d="M665.33,54.99 A0.26,0.26 0 1,0 665.33,55" fill="none" />
<path d="M664.49,55.12 L664.73,55.12" fill="none" />
<path d="M664.45,54.92 L664.73,54.92" fill="none" />
<path d="M664.48,54.92 L664.49,54.92" fill="none" />
<path d="M664.49,55.12 L664.48,55.12" fill="none" />
<path d="M664.67,54.84 L664.67,54.92" fill="none" />
<path d="M664.67,55.12 L664.67,55.19" fill="none" />
<path d="M664.91,54.82 L664.69,54.82" fill="none" />
<path d="M664.69,55.21 L664.89,55.21" fill="none" />
<path d="M664.93,54.8 A0.02,0.02 0 0,0 664.93,54.8" fill="none" />
<path d="M664.71,54.84 A0.02,0.02 0 0,0 664.71,54.84" fill="none" />
<path d="M664.71,55.19 A0.02,0.02 0 0,0 664.71,55.19" fill="none" />
<path d="M665.74,55.21 L665.27,55.21" fill="none" />
<path d="M665.74,54.83 L665.25,54.83" fill="none" />
<path d="M665.74,55.61 L665.86,55.61" fill="none" />
<path d="M665.74,55.61 L665.74,54.43" fill="none" />
<path d="M665.74,54.43 L665.86,54.43" fill="none" />
<path d="M665.86,54.43 L665.86,55.61" fill="none" />
<path d="M665.67,55.01 A0.59,0.59 0 0,0 665.67,54.99" fill="none" />
<path d="M665.67,54.98 A0.59,0.59 0 0,0 665.66,54.96" fill="none" />
<path d="M664.84,51.28 L664.84,54.48" fill="none" />
<path d="M665.22,54.89 L665.22,50.9" fill="none" />
<path d="M671.71,62.42 L671.71,65.62" fill="none" />
<path d="M672.09,66.03 L672.09,62.04" fill="none" />
<path d="M672.06,66.92 L672.06,65.37" fill="none" />
<path d="M672.06,65.37 L671.51,65.37" fill="none" />
<path d="M671.51,65.37 L671.51,66.92" fill="none" />
<path d="M671.51,66.92 L672.06,66.92" fill="none" />
<path d="M587.89,43.45 L619.16,43.45" fill="none" />
<path d="M619.16,43.45 L619.16,64.88" fill="none" />
<path d="M619.16,64.88 L587.89,64.88" fill="none" />
<path d="M587.89,64.88 L587.89,43.45" fill="none" />
<path d="M626.09,73 L639.69,73" fill="none" />
<rect x="346.94" y="770.21" width="36" height="70" fill="none" rx="0.5" transform="rotate(-90,364.94,805.21)" data-block="BiesseRover1531LR" />
<rect x="292.79" y="770.21" width="36" height="70" fill="none" rx="0.5" transform="rotate(-90,310.79,805.21)" data-block="BiesseRover1531RL" />
<path d="M627.5,144.11 L593.9,144.11 L593.9,95.83 L627.5,95.83 Z" fill="none" />
<circle cx="597.46" cy="119.49" r="2.95" fill="none" />
<path d="M601.79,144.11 L604.13,144.11 L604.13,95.83 L601.79,95.83 Z" fill="none" />
<path d="M703.49,106.42 L703.49,130.52 L672.3,130.52 L672.3,106.42 Z" fill="none" />
<path d="M684.33,105.76 A12.05,12.05 0 0,0 684.3,105.43" fill="none" />
<path d="M672.3,106.42 L660.25,106.42" fill="none" />
<path d="M684.34,130.19 A12.05,12.05 0 0,0 684.33,129.86" fill="none" />
<path d="M703.49,106.42 L715.54,106.42" fill="none" />
<path d="M715.5,105.43 A12.05,12.05 0 1,0 715.54,106.42" fill="none" />
<path d="M715.54,130.52 A12.05,12.05 0 0,0 715.54,130.19" fill="none" />
<path d="M943.67,251.8 L943.67,266.21" fill="none" />
<path d="M683.14,318.8 L682.35,318.8" fill="none" />
<rect x="594.5" y="634.24" width="34" height="76" fill="none" rx="0.5" transform="rotate(-90,611.5,672.24)" data-block="Holzma HPL400_2con" />
<rect x="476.71" y="770.21" width="36" height="70" fill="none" rx="0.5" transform="rotate(-90,494.71,805.21)" data-block="BiesseRover1531LR" />
<rect x="427.52" y="770.21" width="36" height="70" fill="none" rx="0.5" transform="rotate(-90,445.52,805.21)" data-block="BiesseRover1531RL" />
<rect x="568.03" y="530.7" width="22" height="90" fill="none" rx="0.5" transform="rotate(-180,579.03,575.7)" data-block="EB_Biesse_Akron_1440A" />
<rect x="257.4" y="503.21" width="22" height="40" fill="none" rx="0.5" transform="rotate(-90,268.4,523.21)" data-block="Biesse Elix K3" />
<rect x="605.82" y="374.19" width="16" height="24" fill="none" rx="0.5" transform="rotate(-90,613.82,386.19)" data-block="DrawerBoxNotcher" />
<rect x="607.14" y="361.26" width="16" height="24" fill="none" rx="0.5" transform="rotate(-270,615.14,373.26)" data-block="DrawerBoxDovetail" />
<path d="M682.35,230.09 L683.14,230.09" fill="none" />
<path d="M465.8,595.51 L465.8,605.12" fill="none" />
<path d="M465.8,605.12 L419.12,605.12" fill="none" />
<rect x="376.19" y="640.12" width="26" height="44" fill="none" rx="0.5" data-block="HOMAG BHX 500" />
<rect x="257.4" y="465.13" width="22" height="40" fill="none" rx="0.5" transform="rotate(-90,268.4,485.13)" data-block="Biesse Elix K3" />
<path d="M672.3,130.52 L660.25,130.52" fill="none" />
<path d="M703.49,130.52 L715.54,130.52" fill="none" />
<path d="M599.73,606.21 L594.93,606.21 L594.93,601.41 L599.73,601.41 Z" fill="none" />
<path d="M597.33,606.21 L597.52,606.21 L597.52,606.68 L597.33,606.68 Z" fill="none" />
<path d="M597.13,606.21 L597.33,606.21 L597.33,606.68 L597.13,606.68 Z" fill="none" />
<path d="M596.93,606.21 L597.13,606.21 L597.13,606.68 L596.93,606.68 Z" fill="none" />
<path d="M596.74,606.21 L596.93,606.21 L596.93,606.68 L596.74,606.68 Z" fill="none" />
<path d="M596.54,606.21 L596.74,606.21 L596.74,606.68 L596.54,606.68 Z" fill="none" />
<path d="M596.34,606.21 L596.54,606.21 L596.54,606.68 L596.34,606.68 Z" fill="none" />
<path d="M596.15,606.21 L596.34,606.21 L596.34,606.68 L596.15,606.68 Z" fill="none" />
<path d="M595.95,606.21 L596.15,606.21 L596.15,606.68 L595.95,606.68 Z" fill="none" />
<path d="M595.75,606.21 L595.95,606.21 L595.95,606.68 L595.75,606.68 Z" fill="none" />
<path d="M595.56,606.21 L595.75,606.21 L595.75,606.68 L595.56,606.68 Z" fill="none" />
<path d="M599.3,606.21 L599.49,606.21 L599.49,606.68 L599.3,606.68 Z" fill="none" />
<path d="M599.1,606.21 L599.3,606.21 L599.3,606.68 L599.1,606.68 Z" fill="none" />
<path d="M598.9,606.21 L599.1,606.21 L599.1,606.68 L598.9,606.68 Z" fill="none" />
<path d="M598.7,606.21 L598.9,606.21 L598.9,606.68 L598.7,606.68 Z" fill="none" />
<path d="M598.51,606.21 L598.7,606.21 L598.7,606.68 L598.51,606.68 Z" fill="none" />
<path d="M598.31,606.21 L598.51,606.21 L598.51,606.68 L598.31,606.68 Z" fill="none" />
<path d="M598.11,606.21 L598.31,606.21 L598.31,606.68 L598.11,606.68 Z" fill="none" />
<path d="M597.92,606.21 L598.11,606.21 L598.11,606.68 L597.92,606.68 Z" fill="none" />
<path d="M597.72,606.21 L597.92,606.21 L597.92,606.68 L597.72,606.68 Z" fill="none" />
<path d="M597.52,606.21 L597.72,606.21 L597.72,606.68 L597.52,606.68 Z" fill="none" />
<path d="M595.36,606.21 L595.56,606.21 L595.56,606.68 L595.36,606.68 Z" fill="none" />
<path d="M595.16,606.21 L595.36,606.21 L595.36,606.68 L595.16,606.68 Z" fill="none" />
<circle cx="597.37" cy="603.85" r="2.37" fill="none" />
<path d="M604.53,606.21 L599.73,606.21 L599.73,601.41 L604.53,601.41 Z" fill="none" />
<path d="M602.13,606.21 L602.33,606.21 L602.33,606.68 L602.13,606.68 Z" fill="none" />
<path d="M601.93,606.21 L602.13,606.21 L602.13,606.68 L601.93,606.68 Z" fill="none" />
<path d="M601.74,606.21 L601.93,606.21 L601.93,606.68 L601.74,606.68 Z" fill="none" />
<path d="M601.54,606.21 L601.74,606.21 L601.74,606.68 L601.54,606.68 Z" fill="none" />
<path d="M601.34,606.21 L601.54,606.21 L601.54,606.68 L601.34,606.68 Z" fill="none" />
<path d="M601.15,606.21 L601.34,606.21 L601.34,606.68 L601.15,606.68 Z" fill="none" />
<path d="M600.95,606.21 L601.15,606.21 L601.15,606.68 L600.95,606.68 Z" fill="none" />
<path d="M600.75,606.21 L600.95,606.21 L600.95,606.68 L600.75,606.68 Z" fill="none" />
<path d="M600.56,606.21 L600.75,606.21 L600.75,606.68 L600.56,606.68 Z" fill="none" />
<path d="M600.36,606.21 L600.56,606.21 L600.56,606.68 L600.36,606.68 Z" fill="none" />
<path d="M604.1,606.21 L604.3,606.21 L604.3,606.68 L604.1,606.68 Z" fill="none" />
<path d="M603.9,606.21 L604.1,606.21 L604.1,606.68 L603.9,606.68 Z" fill="none" />
<path d="M603.7,606.21 L603.9,606.21 L603.9,606.68 L603.7,606.68 Z" fill="none" />
<path d="M603.51,606.21 L603.7,606.21 L603.7,606.68 L603.51,606.68 Z" fill="none" />
<path d="M603.31,606.21 L603.51,606.21 L603.51,606.68 L603.31,606.68 Z" fill="none" />
<path d="M603.11,606.21 L603.31,606.21 L603.31,606.68 L603.11,606.68 Z" fill="none" />
<path d="M602.92,606.21 L603.11,606.21 L603.11,606.68 L602.92,606.68 Z" fill="none" />
<path d="M602.72,606.21 L602.92,606.21 L602.92,606.68 L602.72,606.68 Z" fill="none" />
<path d="M602.52,606.21 L602.72,606.21 L602.72,606.68 L602.52,606.68 Z" fill="none" />
<path d="M602.33,606.21 L602.52,606.21 L602.52,606.68 L602.33,606.68 Z" fill="none" />
<path d="M600.16,606.21 L600.36,606.21 L600.36,606.68 L600.16,606.68 Z" fill="none" />
<path d="M599.96,606.21 L600.16,606.21 L600.16,606.68 L599.96,606.68 Z" fill="none" />
<circle cx="602.17" cy="603.85" r="2.37" fill="none" />
<path d="M609.33,606.21 L604.53,606.21 L604.53,601.41 L609.33,601.41 Z" fill="none" />
<path d="M606.93,606.21 L607.13,606.21 L607.13,606.68 L606.93,606.68 Z" fill="none" />
<path d="M606.74,606.21 L606.93,606.21 L606.93,606.68 L606.74,606.68 Z" fill="none" />
<path d="M606.54,606.21 L606.74,606.21 L606.74,606.68 L606.54,606.68 Z" fill="none" />
<path d="M606.34,606.21 L606.54,606.21 L606.54,606.68 L606.34,606.68 Z" fill="none" />
<path d="M606.15,606.21 L606.34,606.21 L606.34,606.68 L606.15,606.68 Z" fill="none" />
<path d="M605.95,606.21 L606.15,606.21 L606.15,606.68 L605.95,606.68 Z" fill="none" />
<path d="M605.75,606.21 L605.95,606.21 L605.95,606.68 L605.75,606.68 Z" fill="none" />
<path d="M605.56,606.21 L605.75,606.21 L605.75,606.68 L605.56,606.68 Z" fill="none" />
<path d="M605.36,606.21 L605.56,606.21 L605.56,606.68 L605.36,606.68 Z" fill="none" />
<path d="M605.16,606.21 L605.36,606.21 L605.36,606.68 L605.16,606.68 Z" fill="none" />
<path d="M608.9,606.21 L609.1,606.21 L609.1,606.68 L608.9,606.68 Z" fill="none" />
<path d="M608.7,606.21 L608.9,606.21 L608.9,606.68 L608.7,606.68 Z" fill="none" />
<path d="M608.51,606.21 L608.7,606.21 L608.7,606.68 L608.51,606.68 Z" fill="none" />
<path d="M608.31,606.21 L608.51,606.21 L608.51,606.68 L608.31,606.68 Z" fill="none" />
<path d="M608.11,606.21 L608.31,606.21 L608.31,606.68 L608.11,606.68 Z" fill="none" />
<path d="M607.92,606.21 L608.11,606.21 L608.11,606.68 L607.92,606.68 Z" fill="none" />
<path d="M607.72,606.21 L607.92,606.21 L607.92,606.68 L607.72,606.68 Z" fill="none" />
<path d="M607.52,606.21 L607.72,606.21 L607.72,606.68 L607.52,606.68 Z" fill="none" />
<path d="M607.33,606.21 L607.52,606.21 L607.52,606.68 L607.33,606.68 Z" fill="none" />
<path d="M607.13,606.21 L607.33,606.21 L607.33,606.68 L607.13,606.68 Z" fill="none" />
<path d="M604.96,606.21 L605.16,606.21 L605.16,606.68 L604.96,606.68 Z" fill="none" />
<path d="M604.77,606.21 L604.96,606.21 L604.96,606.68 L604.77,606.68 Z" fill="none" />
<circle cx="606.97" cy="603.85" r="2.37" fill="none" />
<path d="M479.08,619.99 L474.28,619.99 L474.28,610.39 L479.08,610.39 Z" fill="none" />
<rect x="1178.1" y="408.07" width="32" height="76" fill="none" rx="0.5" transform="rotate(-90,1194.1,446.07)" data-block="CaseClampFeedThrough" />
<rect x="1682.27" y="572.66" width="14" height="60" fill="none" rx="0.5" transform="rotate(-180,1689.27,602.66)" data-block="MITERSAW_TABLE3658X610" />
<rect x="627.67" y="340.31" width="14" height="20" fill="none" rx="0.5" data-block="DrawerBoxLaser" />
<rect x="490.03" y="176.27" width="16" height="24" fill="none" rx="0.5" transform="rotate(-90,498.03,188.27)" data-block="SanderWB" />
<rect x="563.68" y="375.83" width="16" height="24" fill="none" rx="0.5" transform="rotate(-90,571.68,387.83)" data-block="DrawerBoxDovetail" />
<rect x="573.05" y="197.16" width="12" height="24" fill="none" rx="0.5" transform="rotate(-270,579.05,209.16)" data-block="PocketBoring" />
<rect x="498.04" y="196.81" width="14" height="20" fill="none" rx="0.5" data-block="FaceFrameClamp" />
<rect x="466.28" y="239.16" width="18" height="40" fill="none" rx="0.5" transform="rotate(-90,475.28,259.16)" data-block="PillarMortiseTenonFaceFrame" />
<path d="M319.8,455.5 L319.8,426.06" fill="none" />
<path d="M1504.98,302.12 L1504.98,302.12" fill="none" />
<rect x="504.03" y="658.7" width="26" height="140" fill="none" rx="0.5" data-block="NestingInOutFeed4x10" />
<rect x="558.1" y="658.7" width="26" height="140" fill="none" rx="0.5" data-block="NestingInOutFeed4x10" />
<rect x="1145.9" y="695.04" width="14" height="60" fill="none" rx="0.5" transform="rotate(-270,1152.9,725.04)" data-block="MITERSAW_TABLE3658X610" />
<circle cx="1152.26" cy="734.55" r="1.56" fill="none" />
<path d="M1154.55,728.16 L1153.22,733.33" fill="none" />
<path d="M1153.78,727.97 L1152.47,733.01" fill="none" />
<rect x="577.1" y="232.08" width="14" height="52" fill="none" rx="0.5" transform="rotate(-90,584.1,258.08)" data-block="MitersawTigerstop" />
<path d="M618.59,83.51 L618.59,79.11" fill="none" />
<path d="M618.59,79.11 L605.79,79.11" fill="none" />
<path d="M605.79,79.11 L605.79,83.51" fill="none" />
<path d="M605.79,83.51 L618.59,83.51" fill="none" />
<rect x="631.57" y="361.26" width="16" height="24" fill="none" rx="0.5" transform="rotate(-270,639.57,373.26)" data-block="DrawerBoxDovetail" />
<path d="M980.58,285.11 L980.58,290.48 L971.81,290.48 L971.81,285.11 Z" fill="none" />
<path d="M978.58,285.42 L978.58,286.19 L973.34,286.19 L973.34,285.42 Z" fill="none" />
<path d="M978.64,286.51 L978.64,287.74 L973.4,287.74 L973.4,286.51 Z" fill="none" />
<path d="M978.78,286.34 L978.78,287.92 L973.25,287.92 L973.25,286.34 Z" fill="none" />
<path d="M980.58,285.11 L980.58,290.48 L971.81,290.48 L971.81,285.11 Z" fill="none" />
<path d="M978.58,285.42 L978.58,286.19 L973.34,286.19 L973.34,285.42 Z" fill="none" />
<path d="M978.64,286.51 L978.64,287.74 L973.4,287.74 L973.4,286.51 Z" fill="none" />
<path d="M978.78,286.34 L978.78,287.92 L973.25,287.92 L973.25,286.34 Z" fill="none" />
<path d="M980.58,285.11 L980.58,290.48 L971.81,290.48 L971.81,285.11 Z" fill="none" />
<path d="M978.58,285.42 L978.58,286.19 L973.34,286.19 L973.34,285.42 Z" fill="none" />
<path d="M978.64,286.51 L978.64,287.74 L973.4,287.74 L973.4,286.51 Z" fill="none" />
<path d="M978.78,286.34 L978.78,287.92 L973.25,287.92 L973.25,286.34 Z" fill="none" />
<rect x="609.95" y="684" width="22" height="40" fill="none" rx="0.5" transform="rotate(-180,620.95,704)" data-block="Biesse Elix K3" />
<rect x="634.66" y="684" width="22" height="40" fill="none" rx="0.5" transform="rotate(-180,645.66,704)" data-block="Biesse Elix K3" />
<circle cx="595.76" cy="75.99" r="8.05" fill="none" />
<rect x="1350.16" y="484.76" width="12" height="24" fill="none" rx="0.5" transform="rotate(-270,1356.16,496.76)" data-block="PocketBoring" />
<rect x="687.86" y="205.31" width="240" height="100" fill="none" rx="0.5" data-block="CeflaLines_20200916_V2" />
<rect x="529.45" y="209.65" width="12" height="24" fill="none" rx="0.5" transform="rotate(-90,535.45,221.65)" data-block="PocketBoring" />
</g>
<g id="layer-phase2" stroke="#10b981" stroke-width="1" stroke-linecap="round" stroke-linejoin="round" fill="none" stroke-dasharray="4 3" opacity="0.7">
<path d="M401.53,633.31 L401.53,638.32 L415.13,638.32 L415.13,633.31 Z" fill="none" />
<path d="M401.53,633.31 L415.13,638.32" fill="none" />
<path d="M415.13,633.31 L401.53,638.32" fill="none" />
<path d="M544.19,574.6 L544.19,579.62 L557.79,579.62 L557.79,574.6 Z" fill="none" />
<path d="M544.19,574.6 L557.79,579.62" fill="none" />
<path d="M557.79,574.6 L544.19,579.62" fill="none" />
<path d="M551.19,572.83 L560.21,572.83" fill="none" />
<path d="M370.41,631.53 L407.86,631.53" fill="none" />
<path d="M470.88,633.31 L470.88,638.32 L484.48,638.32 L484.48,633.31 Z" fill="none" />
<path d="M470.88,633.31 L484.48,638.32" fill="none" />
<path d="M484.48,633.31 L470.88,638.32" fill="none" />
<path d="M277.65,525.39 L291.25,530.4" fill="none" />
<path d="M291.25,525.39 L277.65,530.4" fill="none" />
<path d="M277.65,498.54 L277.65,503.55 L291.25,503.55 L291.25,498.54 Z" fill="none" />
<path d="M277.65,498.54 L291.25,503.55" fill="none" />
<path d="M291.25,498.54 L277.65,503.55" fill="none" />
<path d="M678.42,737.56 L678.42,732.75 L683.22,732.75 L683.22,737.56 Z" fill="none" />
<path d="M678.42,735.15 L678.42,735.35 L677.94,735.35 L677.94,735.15 Z" fill="none" />
<path d="M678.42,734.96 L678.42,735.15 L677.94,735.15 L677.94,734.96 Z" fill="none" />
<path d="M678.42,734.76 L678.42,734.96 L677.94,734.96 L677.94,734.76 Z" fill="none" />
<path d="M678.42,734.56 L678.42,734.76 L677.94,734.76 L677.94,734.56 Z" fill="none" />
<path d="M678.42,734.37 L678.42,734.56 L677.94,734.56 L677.94,734.37 Z" fill="none" />
<path d="M678.42,734.17 L678.42,734.37 L677.94,734.37 L677.94,734.17 Z" fill="none" />
<path d="M678.42,733.97 L678.42,734.17 L677.94,734.17 L677.94,733.97 Z" fill="none" />
<path d="M678.42,733.78 L678.42,733.97 L677.94,733.97 L677.94,733.78 Z" fill="none" />
<path d="M678.42,733.58 L678.42,733.78 L677.94,733.78 L677.94,733.58 Z" fill="none" />
<path d="M678.42,733.38 L678.42,733.58 L677.94,733.58 L677.94,733.38 Z" fill="none" />
<path d="M678.42,737.12 L678.42,737.32 L677.94,737.32 L677.94,737.12 Z" fill="none" />
<path d="M678.42,736.93 L678.42,737.12 L677.94,737.12 L677.94,736.93 Z" fill="none" />
<path d="M678.42,736.73 L678.42,736.93 L677.94,736.93 L677.94,736.73 Z" fill="none" />
<path d="M678.42,736.53 L678.42,736.73 L677.94,736.73 L677.94,736.53 Z" fill="none" />
<path d="M678.42,736.34 L678.42,736.53 L677.94,736.53 L677.94,736.34 Z" fill="none" />
<path d="M678.42,736.14 L678.42,736.34 L677.94,736.34 L677.94,736.14 Z" fill="none" />
<path d="M678.42,735.94 L678.42,736.14 L677.94,736.14 L677.94,735.94 Z" fill="none" />
<path d="M678.42,735.75 L678.42,735.94 L677.94,735.94 L677.94,735.75 Z" fill="none" />
<path d="M678.42,735.55 L678.42,735.75 L677.94,735.75 L677.94,735.55 Z" fill="none" />
<path d="M678.42,735.35 L678.42,735.55 L677.94,735.55 L677.94,735.35 Z" fill="none" />
<path d="M678.42,733.19 L678.42,733.38 L677.94,733.38 L677.94,733.19 Z" fill="none" />
<path d="M678.42,732.99 L678.42,733.19 L677.94,733.19 L677.94,732.99 Z" fill="none" />
<circle cx="680.78" cy="735.19" r="2.37" fill="none" />
<path d="M678.42,742.36 L678.42,737.56 L683.22,737.56 L683.22,742.36 Z" fill="none" />
<path d="M678.42,739.96 L678.42,740.15 L677.94,740.15 L677.94,739.96 Z" fill="none" />
<path d="M678.42,739.76 L678.42,739.96 L677.94,739.96 L677.94,739.76 Z" fill="none" />
<path d="M678.42,739.56 L678.42,739.76 L677.94,739.76 L677.94,739.56 Z" fill="none" />
<path d="M678.42,739.37 L678.42,739.56 L677.94,739.56 L677.94,739.37 Z" fill="none" />
<path d="M678.42,739.17 L678.42,739.37 L677.94,739.37 L677.94,739.17 Z" fill="none" />
<path d="M678.42,738.97 L678.42,739.17 L677.94,739.17 L677.94,738.97 Z" fill="none" />
<path d="M678.42,738.78 L678.42,738.97 L677.94,738.97 L677.94,738.78 Z" fill="none" />
<path d="M678.42,738.58 L678.42,738.78 L677.94,738.78 L677.94,738.58 Z" fill="none" />
<path d="M678.42,738.38 L678.42,738.58 L677.94,738.58 L677.94,738.38 Z" fill="none" />
<path d="M678.42,738.19 L678.42,738.38 L677.94,738.38 L677.94,738.19 Z" fill="none" />
<path d="M678.42,741.93 L678.42,742.12 L677.94,742.12 L677.94,741.93 Z" fill="none" />
<path d="M678.42,741.73 L678.42,741.93 L677.94,741.93 L677.94,741.73 Z" fill="none" />
<path d="M678.42,741.53 L678.42,741.73 L677.94,741.73 L677.94,741.53 Z" fill="none" />
<path d="M678.42,741.34 L678.42,741.53 L677.94,741.53 L677.94,741.34 Z" fill="none" />
<path d="M678.42,741.14 L678.42,741.34 L677.94,741.34 L677.94,741.14 Z" fill="none" />
<path d="M678.42,740.94 L678.42,741.14 L677.94,741.14 L677.94,740.94 Z" fill="none" />
<path d="M678.42,740.75 L678.42,740.94 L677.94,740.94 L677.94,740.75 Z" fill="none" />
<path d="M678.42,740.55 L678.42,740.75 L677.94,740.75 L677.94,740.55 Z" fill="none" />
<path d="M678.42,740.35 L678.42,740.55 L677.94,740.55 L677.94,740.35 Z" fill="none" />
<path d="M678.42,740.15 L678.42,740.35 L677.94,740.35 L677.94,740.15 Z" fill="none" />
<path d="M678.42,737.99 L678.42,738.19 L677.94,738.19 L677.94,737.99 Z" fill="none" />
<path d="M678.42,737.79 L678.42,737.99 L677.94,737.99 L677.94,737.79 Z" fill="none" />
<circle cx="680.78" cy="740" r="2.37" fill="none" />
<path d="M678.42,747.16 L678.42,742.36 L683.22,742.36 L683.22,747.16 Z" fill="none" />
<path d="M678.42,744.76 L678.42,744.96 L677.94,744.96 L677.94,744.76 Z" fill="none" />
<path d="M678.42,744.56 L678.42,744.76 L677.94,744.76 L677.94,744.56 Z" fill="none" />
<path d="M678.42,744.37 L678.42,744.56 L677.94,744.56 L677.94,744.37 Z" fill="none" />
<path d="M678.42,744.17 L678.42,744.37 L677.94,744.37 L677.94,744.17 Z" fill="none" />
<path d="M678.42,743.97 L678.42,744.17 L677.94,744.17 L677.94,743.97 Z" fill="none" />
<path d="M678.42,743.78 L678.42,743.97 L677.94,743.97 L677.94,743.78 Z" fill="none" />
<path d="M678.42,743.58 L678.42,743.78 L677.94,743.78 L677.94,743.58 Z" fill="none" />
<path d="M678.42,743.38 L678.42,743.58 L677.94,743.58 L677.94,743.38 Z" fill="none" />
<path d="M678.42,743.19 L678.42,743.38 L677.94,743.38 L677.94,743.19 Z" fill="none" />
<path d="M678.42,742.99 L678.42,743.19 L677.94,743.19 L677.94,742.99 Z" fill="none" />
<path d="M678.42,746.73 L678.42,746.93 L677.94,746.93 L677.94,746.73 Z" fill="none" />
<path d="M678.42,746.53 L678.42,746.73 L677.94,746.73 L677.94,746.53 Z" fill="none" />
<path d="M678.42,746.34 L678.42,746.53 L677.94,746.53 L677.94,746.34 Z" fill="none" />
<path d="M678.42,746.14 L678.42,746.34 L677.94,746.34 L677.94,746.14 Z" fill="none" />
<path d="M678.42,745.94 L678.42,746.14 L677.94,746.14 L677.94,745.94 Z" fill="none" />
<path d="M678.42,745.75 L678.42,745.94 L677.94,745.94 L677.94,745.75 Z" fill="none" />
<path d="M678.42,745.55 L678.42,745.75 L677.94,745.75 L677.94,745.55 Z" fill="none" />
<path d="M678.42,745.35 L678.42,745.55 L677.94,745.55 L677.94,745.35 Z" fill="none" />
<path d="M678.42,745.15 L678.42,745.35 L677.94,745.35 L677.94,745.15 Z" fill="none" />
<path d="M678.42,744.96 L678.42,745.15 L677.94,745.15 L677.94,744.96 Z" fill="none" />
<path d="M678.42,742.79 L678.42,742.99 L677.94,742.99 L677.94,742.79 Z" fill="none" />
<path d="M678.42,742.6 L678.42,742.79 L677.94,742.79 L677.94,742.6 Z" fill="none" />
<circle cx="680.78" cy="744.8" r="2.37" fill="none" />
<path d="M559.35,461.75 L554.55,461.75 L554.55,456.94 L559.35,456.94 Z" fill="none" />
<path d="M556.95,458.62 L557.15,458.62 L557.15,459.09 L556.95,459.09 Z" fill="none" />
<path d="M556.75,458.62 L556.95,458.62 L556.95,459.09 L556.75,459.09 Z" fill="none" />
<path d="M556.56,458.62 L556.75,458.62 L556.75,459.09 L556.56,459.09 Z" fill="none" />
<path d="M556.36,458.62 L556.56,458.62 L556.56,459.09 L556.36,459.09 Z" fill="none" />
<path d="M556.16,458.62 L556.36,458.62 L556.36,459.09 L556.16,459.09 Z" fill="none" />
<path d="M555.97,458.62 L556.16,458.62 L556.16,459.09 L555.97,459.09 Z" fill="none" />
<path d="M555.77,458.62 L555.97,458.62 L555.97,459.09 L555.77,459.09 Z" fill="none" />
<path d="M555.57,458.62 L555.77,458.62 L555.77,459.09 L555.57,459.09 Z" fill="none" />
<path d="M555.38,458.62 L555.57,458.62 L555.57,459.09 L555.38,459.09 Z" fill="none" />
<path d="M555.18,458.62 L555.38,458.62 L555.38,459.09 L555.18,459.09 Z" fill="none" />
<path d="M558.92,458.62 L559.12,458.62 L559.12,459.09 L558.92,459.09 Z" fill="none" />
<path d="M558.72,458.62 L558.92,458.62 L558.92,459.09 L558.72,459.09 Z" fill="none" />
<path d="M558.53,458.62 L558.72,458.62 L558.72,459.09 L558.53,459.09 Z" fill="none" />
<path d="M558.33,458.62 L558.53,458.62 L558.53,459.09 L558.33,459.09 Z" fill="none" />
<path d="M558.13,458.62 L558.33,458.62 L558.33,459.09 L558.13,459.09 Z" fill="none" />
<path d="M557.93,458.62 L558.13,458.62 L558.13,459.09 L557.93,459.09 Z" fill="none" />
<path d="M557.74,458.62 L557.93,458.62 L557.93,459.09 L557.74,459.09 Z" fill="none" />
<path d="M557.54,458.62 L557.74,458.62 L557.74,459.09 L557.54,459.09 Z" fill="none" />
<path d="M557.34,458.62 L557.54,458.62 L557.54,459.09 L557.34,459.09 Z" fill="none" />
<path d="M557.15,458.62 L557.34,458.62 L557.34,459.09 L557.15,459.09 Z" fill="none" />
<path d="M554.98,458.62 L555.18,458.62 L555.18,459.09 L554.98,459.09 Z" fill="none" />
<path d="M554.79,458.62 L554.98,458.62 L554.98,459.09 L554.79,459.09 Z" fill="none" />
<circle cx="556.99" cy="459.39" r="2.37" fill="none" />
<path d="M564.16,461.75 L559.35,461.75 L559.35,456.94 L564.16,456.94 Z" fill="none" />
<path d="M561.75,458.62 L561.95,458.62 L561.95,459.09 L561.75,459.09 Z" fill="none" />
<path d="M561.56,458.62 L561.75,458.62 L561.75,459.09 L561.56,459.09 Z" fill="none" />
<path d="M561.36,458.62 L561.56,458.62 L561.56,459.09 L561.36,459.09 Z" fill="none" />
<path d="M561.16,458.62 L561.36,458.62 L561.36,459.09 L561.16,459.09 Z" fill="none" />
<path d="M560.97,458.62 L561.16,458.62 L561.16,459.09 L560.97,459.09 Z" fill="none" />
<path d="M560.77,458.62 L560.97,458.62 L560.97,459.09 L560.77,459.09 Z" fill="none" />
<path d="M560.57,458.62 L560.77,458.62 L560.77,459.09 L560.57,459.09 Z" fill="none" />
<path d="M560.38,458.62 L560.57,458.62 L560.57,459.09 L560.38,459.09 Z" fill="none" />
<path d="M560.18,458.62 L560.38,458.62 L560.38,459.09 L560.18,459.09 Z" fill="none" />
<path d="M559.98,458.62 L560.18,458.62 L560.18,459.09 L559.98,459.09 Z" fill="none" />
<path d="M563.72,458.62 L563.92,458.62 L563.92,459.09 L563.72,459.09 Z" fill="none" />
<path d="M563.53,458.62 L563.72,458.62 L563.72,459.09 L563.53,459.09 Z" fill="none" />
<path d="M563.33,458.62 L563.53,458.62 L563.53,459.09 L563.33,459.09 Z" fill="none" />
<path d="M563.13,458.62 L563.33,458.62 L563.33,459.09 L563.13,459.09 Z" fill="none" />
<path d="M562.93,458.62 L563.13,458.62 L563.13,459.09 L562.93,459.09 Z" fill="none" />
<path d="M562.74,458.62 L562.93,458.62 L562.93,459.09 L562.74,459.09 Z" fill="none" />
<path d="M562.54,458.62 L562.74,458.62 L562.74,459.09 L562.54,459.09 Z" fill="none" />
<path d="M562.34,458.62 L562.54,458.62 L562.54,459.09 L562.34,459.09 Z" fill="none" />
<path d="M562.15,458.62 L562.34,458.62 L562.34,459.09 L562.15,459.09 Z" fill="none" />
<path d="M561.95,458.62 L562.15,458.62 L562.15,459.09 L561.95,459.09 Z" fill="none" />
<path d="M559.79,458.62 L559.98,458.62 L559.98,459.09 L559.79,459.09 Z" fill="none" />
<path d="M559.59,458.62 L559.79,458.62 L559.79,459.09 L559.59,459.09 Z" fill="none" />
<circle cx="561.6" cy="459.29" r="2.37" fill="none" />
<path d="M568.96,461.75 L564.16,461.75 L564.16,456.94 L568.96,456.94 Z" fill="none" />
<path d="M566.56,458.62 L566.75,458.62 L566.75,459.09 L566.56,459.09 Z" fill="none" />
<path d="M566.36,458.62 L566.56,458.62 L566.56,459.09 L566.36,459.09 Z" fill="none" />
<path d="M566.16,458.62 L566.36,458.62 L566.36,459.09 L566.16,459.09 Z" fill="none" />
<path d="M565.97,458.62 L566.16,458.62 L566.16,459.09 L565.97,459.09 Z" fill="none" />
<path d="M565.77,458.62 L565.97,458.62 L565.97,459.09 L565.77,459.09 Z" fill="none" />
<path d="M565.57,458.62 L565.77,458.62 L565.77,459.09 L565.57,459.09 Z" fill="none" />
<path d="M565.38,458.62 L565.57,458.62 L565.57,459.09 L565.38,459.09 Z" fill="none" />
<path d="M565.18,458.62 L565.38,458.62 L565.38,459.09 L565.18,459.09 Z" fill="none" />
<path d="M564.98,458.62 L565.18,458.62 L565.18,459.09 L564.98,459.09 Z" fill="none" />
<path d="M564.79,458.62 L564.98,458.62 L564.98,459.09 L564.79,459.09 Z" fill="none" />
<path d="M568.53,458.62 L568.72,458.62 L568.72,459.09 L568.53,459.09 Z" fill="none" />
<path d="M568.33,458.62 L568.53,458.62 L568.53,459.09 L568.33,459.09 Z" fill="none" />
<path d="M568.13,458.62 L568.33,458.62 L568.33,459.09 L568.13,459.09 Z" fill="none" />
<path d="M567.93,458.62 L568.13,458.62 L568.13,459.09 L567.93,459.09 Z" fill="none" />
<path d="M567.74,458.62 L567.93,458.62 L567.93,459.09 L567.74,459.09 Z" fill="none" />
<path d="M567.54,458.62 L567.74,458.62 L567.74,459.09 L567.54,459.09 Z" fill="none" />
<path d="M567.34,458.62 L567.54,458.62 L567.54,459.09 L567.34,459.09 Z" fill="none" />
<path d="M567.15,458.62 L567.34,458.62 L567.34,459.09 L567.15,459.09 Z" fill="none" />
<path d="M566.95,458.62 L567.15,458.62 L567.15,459.09 L566.95,459.09 Z" fill="none" />
<path d="M566.75,458.62 L566.95,458.62 L566.95,459.09 L566.75,459.09 Z" fill="none" />
<path d="M564.59,458.62 L564.79,458.62 L564.79,459.09 L564.59,459.09 Z" fill="none" />
<path d="M564.39,458.62 L564.59,458.62 L564.59,459.09 L564.39,459.09 Z" fill="none" />
<circle cx="566.6" cy="459.39" r="2.37" fill="none" />
<path d="M260.18,535.43 L255.38,535.43 L255.38,525.82 L260.18,525.82 Z" fill="none" />
<path d="M544.94,461.75 L544.94,456.94 L554.55,456.94 L554.55,461.75 Z" fill="none" />
<path d="M1172.68,102.03 L1172.68,92.42 L1191.89,92.42 L1191.89,102.03 Z" fill="none" />
<path d="M1558.99,332.84 L1558.99,324.45 L1573.4,324.45 L1573.4,332.84 Z" fill="none" />
<path d="M1558.99,358.98 L1558.99,350.59 L1573.4,350.59 L1573.4,358.98 Z" fill="none" />
<path d="M1521.77,332.84 L1521.77,324.45 L1536.18,324.45 L1536.18,332.84 Z" fill="none" />
<path d="M1521.77,358.98 L1521.77,350.59 L1536.18,350.59 L1536.18,358.98 Z" fill="none" />
<path d="M1573.4,326.55 L1573.4,330.74 L1574.92,330.74 L1574.92,326.55 Z" fill="none" />
<path d="M1573.62,327.31 L1573.62,329.98 L1573.93,329.98 L1573.93,327.31 Z" fill="none" />
<path d="M1574.54,328.26 A4.18,4.18 0 1,0 1574.56,328.66" fill="none" />
<path d="M1574.17,326.92 L1574.17,330.46" fill="none" />
<path d="M1573.4,352.69 L1573.4,356.89 L1574.92,356.89 L1574.92,352.69 Z" fill="none" />
<path d="M1573.62,353.45 L1573.62,356.13 L1573.93,356.13 L1573.93,353.45 Z" fill="none" />
<path d="M1574.54,354.41 A4.18,4.18 0 1,0 1574.56,354.8" fill="none" />
<path d="M1574.17,353.06 L1574.17,356.6" fill="none" />
<path d="M1521.77,352.69 L1521.77,356.89 L1520.26,356.89 L1520.26,352.69 Z" fill="none" />
<path d="M1521.56,353.45 L1521.56,356.13 L1521.24,356.13 L1521.24,353.45 Z" fill="none" />
<path d="M1528.97,354.63 A4.18,4.18 0 0,0 1528.96,354.57" fill="none" />
<path d="M1521,353.06 L1521,356.6" fill="none" />
<path d="M1521.77,326.55 L1521.77,330.74 L1520.26,330.74 L1520.26,326.55 Z" fill="none" />
<path d="M1521.56,327.31 L1521.56,329.98 L1521.24,329.98 L1521.24,327.31 Z" fill="none" />
<path d="M1528.97,328.49 A4.18,4.18 0 0,0 1528.96,328.43" fill="none" />
<path d="M1521,326.92 L1521,330.46" fill="none" />
<path d="M1558.99,396.35 L1558.99,387.95 L1565.15,387.95 L1565.15,396.35 Z" fill="none" />
<path d="M1565.15,390.05 L1565.15,394.25 L1566.67,394.25 L1566.67,390.05 Z" fill="none" />
<path d="M1565.37,390.81 L1565.37,393.49 L1565.68,393.49 L1565.68,390.81 Z" fill="none" />
<path d="M1566.29,391.77 A4.18,4.18 0 1,0 1566.31,392.16" fill="none" />
<path d="M1565.92,390.42 L1565.92,393.97" fill="none" />
<path d="M1575.75,387.34 L1575.75,396.95 L1580.59,396.95 L1580.59,387.34 Z" fill="none" />
<path d="M1581.73,387.34 L1581.73,396.95 L1586.57,396.95 L1586.57,387.34 Z" fill="none" />
<path d="M1558.99,580.76 L1558.99,572.36 L1565.15,572.36 L1565.15,580.76 Z" fill="none" />
<path d="M1565.15,574.46 L1565.15,578.66 L1566.67,578.66 L1566.67,574.46 Z" fill="none" />
<path d="M1565.37,575.22 L1565.37,577.9 L1565.68,577.9 L1565.68,575.22 Z" fill="none" />
<path d="M1566.29,576.18 A4.18,4.18 0 1,0 1566.31,576.57" fill="none" />
<path d="M1565.92,574.83 L1565.92,578.37" fill="none" />
<path d="M1577.95,600.11 L1577.95,619.32 L1587.56,619.32 L1587.56,600.11 Z" fill="none" />
<circle cx="1564.09" cy="621.59" r="4.88" fill="none" />
<path d="M1539.53,643.25 L1539.53,650.25 L1555.82,650.25 L1555.82,643.25 Z" fill="none" />
<path d="M462.93,349.88 L458.13,349.88 L458.13,345.08 L462.93,345.08 Z" fill="none" />
<path d="M460.53,349.88 L460.73,349.88 L460.73,350.35 L460.53,350.35 Z" fill="none" />
<path d="M460.33,349.88 L460.53,349.88 L460.53,350.35 L460.33,350.35 Z" fill="none" />
<path d="M460.13,349.88 L460.33,349.88 L460.33,350.35 L460.13,350.35 Z" fill="none" />
<path d="M459.94,349.88 L460.13,349.88 L460.13,350.35 L459.94,350.35 Z" fill="none" />
<path d="M459.74,349.88 L459.94,349.88 L459.94,350.35 L459.74,350.35 Z" fill="none" />
<path d="M459.54,349.88 L459.74,349.88 L459.74,350.35 L459.54,350.35 Z" fill="none" />
<path d="M459.35,349.88 L459.54,349.88 L459.54,350.35 L459.35,350.35 Z" fill="none" />
<path d="M459.15,349.88 L459.35,349.88 L459.35,350.35 L459.15,350.35 Z" fill="none" />
<path d="M458.95,349.88 L459.15,349.88 L459.15,350.35 L458.95,350.35 Z" fill="none" />
<path d="M458.76,349.88 L458.95,349.88 L458.95,350.35 L458.76,350.35 Z" fill="none" />
<path d="M462.5,349.88 L462.69,349.88 L462.69,350.35 L462.5,350.35 Z" fill="none" />
<path d="M462.3,349.88 L462.5,349.88 L462.5,350.35 L462.3,350.35 Z" fill="none" />
<path d="M462.1,349.88 L462.3,349.88 L462.3,350.35 L462.1,350.35 Z" fill="none" />
<path d="M461.91,349.88 L462.1,349.88 L462.1,350.35 L461.91,350.35 Z" fill="none" />
<path d="M461.71,349.88 L461.91,349.88 L461.91,350.35 L461.71,350.35 Z" fill="none" />
<path d="M461.51,349.88 L461.71,349.88 L461.71,350.35 L461.51,350.35 Z" fill="none" />
<path d="M461.32,349.88 L461.51,349.88 L461.51,350.35 L461.32,350.35 Z" fill="none" />
<path d="M461.12,349.88 L461.32,349.88 L461.32,350.35 L461.12,350.35 Z" fill="none" />
<path d="M460.92,349.88 L461.12,349.88 L461.12,350.35 L460.92,350.35 Z" fill="none" />
<path d="M460.73,349.88 L460.92,349.88 L460.92,350.35 L460.73,350.35 Z" fill="none" />
<path d="M458.56,349.88 L458.76,349.88 L458.76,350.35 L458.56,350.35 Z" fill="none" />
<path d="M458.36,349.88 L458.56,349.88 L458.56,350.35 L458.36,350.35 Z" fill="none" />
<circle cx="460.57" cy="347.52" r="2.37" fill="none" />
<path d="M467.73,349.88 L462.93,349.88 L462.93,345.08 L467.73,345.08 Z" fill="none" />
<path d="M465.33,349.88 L465.53,349.88 L465.53,350.35 L465.33,350.35 Z" fill="none" />
<path d="M465.13,349.88 L465.33,349.88 L465.33,350.35 L465.13,350.35 Z" fill="none" />
<path d="M464.94,349.88 L465.13,349.88 L465.13,350.35 L464.94,350.35 Z" fill="none" />
<path d="M464.74,349.88 L464.94,349.88 L464.94,350.35 L464.74,350.35 Z" fill="none" />
<path d="M464.54,349.88 L464.74,349.88 L464.74,350.35 L464.54,350.35 Z" fill="none" />
<path d="M464.35,349.88 L464.54,349.88 L464.54,350.35 L464.35,350.35 Z" fill="none" />
<path d="M464.15,349.88 L464.35,349.88 L464.35,350.35 L464.15,350.35 Z" fill="none" />
<path d="M463.95,349.88 L464.15,349.88 L464.15,350.35 L463.95,350.35 Z" fill="none" />
<path d="M463.76,349.88 L463.95,349.88 L463.95,350.35 L463.76,350.35 Z" fill="none" />
<path d="M463.56,349.88 L463.76,349.88 L463.76,350.35 L463.56,350.35 Z" fill="none" />
<path d="M467.3,349.88 L467.5,349.88 L467.5,350.35 L467.3,350.35 Z" fill="none" />
<path d="M467.1,349.88 L467.3,349.88 L467.3,350.35 L467.1,350.35 Z" fill="none" />
<path d="M466.91,349.88 L467.1,349.88 L467.1,350.35 L466.91,350.35 Z" fill="none" />
<path d="M466.71,349.88 L466.91,349.88 L466.91,350.35 L466.71,350.35 Z" fill="none" />
<path d="M466.51,349.88 L466.71,349.88 L466.71,350.35 L466.51,350.35 Z" fill="none" />
<path d="M466.32,349.88 L466.51,349.88 L466.51,350.35 L466.32,350.35 Z" fill="none" />
<path d="M466.12,349.88 L466.32,349.88 L466.32,350.35 L466.12,350.35 Z" fill="none" />
<path d="M465.92,349.88 L466.12,349.88 L466.12,350.35 L465.92,350.35 Z" fill="none" />
<path d="M465.73,349.88 L465.92,349.88 L465.92,350.35 L465.73,350.35 Z" fill="none" />
<path d="M465.53,349.88 L465.73,349.88 L465.73,350.35 L465.53,350.35 Z" fill="none" />
<path d="M463.36,349.88 L463.56,349.88 L463.56,350.35 L463.36,350.35 Z" fill="none" />
<path d="M463.17,349.88 L463.36,349.88 L463.36,350.35 L463.17,350.35 Z" fill="none" />
<circle cx="465.37" cy="347.52" r="2.37" fill="none" />
<path d="M472.54,349.88 L467.73,349.88 L467.73,345.08 L472.54,345.08 Z" fill="none" />
<path d="M470.13,349.88 L470.33,349.88 L470.33,350.35 L470.13,350.35 Z" fill="none" />
<path d="M469.94,349.88 L470.13,349.88 L470.13,350.35 L469.94,350.35 Z" fill="none" />
<path d="M469.74,349.88 L469.94,349.88 L469.94,350.35 L469.74,350.35 Z" fill="none" />
<path d="M469.54,349.88 L469.74,349.88 L469.74,350.35 L469.54,350.35 Z" fill="none" />
<path d="M469.35,349.88 L469.54,349.88 L469.54,350.35 L469.35,350.35 Z" fill="none" />
<path d="M469.15,349.88 L469.35,349.88 L469.35,350.35 L469.15,350.35 Z" fill="none" />
<path d="M468.95,349.88 L469.15,349.88 L469.15,350.35 L468.95,350.35 Z" fill="none" />
<path d="M468.76,349.88 L468.95,349.88 L468.95,350.35 L468.76,350.35 Z" fill="none" />
<path d="M468.56,349.88 L468.76,349.88 L468.76,350.35 L468.56,350.35 Z" fill="none" />
<path d="M468.36,349.88 L468.56,349.88 L468.56,350.35 L468.36,350.35 Z" fill="none" />
<path d="M470.92,349.88 L471.12,349.88 L471.12,350.35 L470.92,350.35 Z" fill="none" />
<path d="M470.73,349.88 L470.92,349.88 L470.92,350.35 L470.73,350.35 Z" fill="none" />
<path d="M470.53,349.88 L470.73,349.88 L470.73,350.35 L470.53,350.35 Z" fill="none" />
<path d="M470.33,349.88 L470.53,349.88 L470.53,350.35 L470.33,350.35 Z" fill="none" />
<path d="M468.17,349.88 L468.36,349.88 L468.36,350.35 L468.17,350.35 Z" fill="none" />
<path d="M467.97,349.88 L468.17,349.88 L468.17,350.35 L467.97,350.35 Z" fill="none" />
<circle cx="470.17" cy="347.52" r="2.37" fill="none" />
<path d="M448.52,349.88 L448.52,345.08 L458.13,345.08 L458.13,349.88 Z" fill="none" />
<path d="M1500.17,694.41 L1500.17,313.45" fill="none" />
<path d="M1599.81,694.41 L1599.81,313.45" fill="none" />
<path d="M1500.17,313.45 L1599.81,313.45" fill="none" />
<path d="M1500.17,694.41 L1599.81,694.41" fill="none" />
<path d="M401.53,535.47 L401.53,540.48 L415.13,540.48 L415.13,535.47 Z" fill="none" />
<path d="M401.53,535.47 L415.13,540.48" fill="none" />
<path d="M415.13,535.47 L401.53,540.48" fill="none" />
<path d="M370.41,533.69 L407.86,533.69" fill="none" />
<path d="M470.88,535.47 L470.88,540.48 L484.48,540.48 L484.48,535.47 Z" fill="none" />
<path d="M470.88,535.47 L484.48,540.48" fill="none" />
<path d="M484.48,535.47 L470.88,540.48" fill="none" />
<path d="M494.39,457.11 L494.39,560.89 L495.18,560.89 L495.18,457.11 Z" fill="none" />
<path d="M510.06,456.8 L510.06,560.58 L510.85,560.58 L510.85,456.8 Z" fill="none" />
<path d="M374.9,490.5 L374.9,560.89 L375.69,560.89 L375.69,490.5 Z" fill="none" />
<path d="M390.57,490.18 L390.57,560.58 L391.36,560.58 L391.36,490.18 Z" fill="none" />
<path d="M479.08,522.15 L474.28,522.15 L474.28,512.55 L479.08,512.55 Z" fill="none" />
<path d="M544.19,476.76 L544.19,481.77 L557.79,481.77 L557.79,476.76 Z" fill="none" />
<path d="M544.19,476.76 L557.79,481.77" fill="none" />
<path d="M557.79,476.76 L544.19,481.77" fill="none" />
<path d="M551.19,474.99 L560.21,474.99" fill="none" />
<path d="M542.9,488.19 L542.9,560.89 L543.68,560.89 L543.68,488.19 Z" fill="none" />
<path d="M558.64,488.19 L558.64,560.89 L559.43,560.89 L559.43,488.19 Z" fill="none" />
<path d="M658.48,631.06 L683.22,631.06" fill="none" />
<path d="M658.28,546.89 L658.28,522.88" fill="none" />
<path d="M658.28,522.88 L658.28,515.12" fill="none" />
<path d="M658.28,515.12 L683.02,515.12" fill="none" />
<path d="M658.28,555.29 L658.48,599.76" fill="none" />
<path d="M400.61,424.96 L400.61,434.57 L381.4,434.57 L381.4,424.96 Z" fill="none" />
<path d="M441.08,424.96 L441.08,434.57 L421.87,434.57 L421.87,424.96 Z" fill="none" />
<path d="M277.73,487.2 L277.73,492.21 L291.33,492.21 L291.33,487.2 Z" fill="none" />
<path d="M277.73,487.2 L291.33,492.21" fill="none" />
<path d="M291.33,487.2 L277.73,492.21" fill="none" />
<path d="M277.73,460.35 L277.73,465.36 L291.33,465.36 L291.33,460.35 Z" fill="none" />
<path d="M277.73,460.35 L291.33,465.36" fill="none" />
<path d="M291.33,460.35 L277.73,465.36" fill="none" />
<path d="M1520.69,550.77 L1520.69,560.38 L1514.53,560.38 L1514.53,550.77 Z" fill="none" />
<path d="M1514.53,557.68 L1514.53,553.48 L1513.02,553.48 L1513.02,557.68 Z" fill="none" />
<path d="M1513.76,557.3 L1513.76,553.76" fill="none" />
<path d="M1520.08,596.52 L1511.68,596.52 L1511.68,582.11 L1520.08,582.11 Z" fill="none" />
<path d="M1514.15,597.29 L1517.69,597.29" fill="none" />
<path d="M1542.99,318.17 L1542.99,312.79 L1551.76,312.79 L1551.76,318.17 Z" fill="none" />
<path d="M1544.99,317.85 L1544.99,317.08 L1550.23,317.08 L1550.23,317.85 Z" fill="none" />
<path d="M1544.93,316.76 L1544.93,315.54 L1550.17,315.54 L1550.17,316.76 Z" fill="none" />
<path d="M1544.79,316.93 L1544.79,315.35 L1550.32,315.35 L1550.32,316.93 Z" fill="none" />
<path d="M1540.34,528.32 L1554.66,528.32" fill="none" />
<path d="M1554.66,523.73 L1540.44,523.73" fill="none" />
<path d="M1540.44,523.73 L1540.44,528.19" fill="none" />
<path d="M1554.66,523.73 L1554.66,528.19" fill="none" />
<path d="M1553.09,523.73 L1553.09,528.19" fill="none" />
<path d="M1541.82,523.73 L1541.82,528.19" fill="none" />
<path d="M1572.03,491.21 L1572.03,500.82 L1565.87,500.82 L1565.87,491.21 Z" fill="none" />
<path d="M1575.58,503.68 L1575.58,499.48 L1574.07,499.48 L1574.07,503.68 Z" fill="none" />
<path d="M1575.37,502.92 L1575.37,500.24 L1575.05,500.24 L1575.05,502.92 Z" fill="none" />
<path d="M1582.78,501.34 A4.18,4.18 0 0,0 1582.78,501.27" fill="none" />
<path d="M1574.82,503.31 L1574.82,499.76" fill="none" />
<path d="M1565.69,512.42 L1565.69,502.81 L1571.85,502.81 L1571.85,512.42 Z" fill="none" />
<path d="M1578.15,524.34 L1587.75,524.34 L1587.75,519.5 L1578.15,519.5 Z" fill="none" />
<path d="M1578.15,517.89 L1587.75,517.89 L1587.75,513.04 L1578.15,513.04 Z" fill="none" />
<path d="M1583.81,423.75 L1575.42,423.75 L1575.42,417.59 L1583.81,417.59 Z" fill="none" />
<path d="M1577.52,417.59 L1581.71,417.59 L1581.71,416.07 L1577.52,416.07 Z" fill="none" />
<path d="M1578.28,417.37 L1580.95,417.37 L1580.95,417.06 L1578.28,417.06 Z" fill="none" />
<path d="M1583.84,420.52 A4.18,4.18 0 0,0 1583.84,420.46" fill="none" />
<path d="M1577.89,416.82 L1581.43,416.82" fill="none" />
<path d="M1575.76,452.62 L1584.15,452.62 L1584.15,458.77 L1575.76,458.77 Z" fill="none" />
<path d="M1568.59,477.1 L1560.2,477.1 L1560.2,470.94 L1568.59,470.94 Z" fill="none" />
<path d="M1589.37,490.46 L1580.98,490.46 L1580.98,484.31 L1589.37,484.31 Z" fill="none" />
</g>
</svg>