<svg xmlns="http://www.w3.org/2000/svg" viewBox="-330 -2795 4320 2540" width="200" height="117.59">
<g stroke="#1e293b" stroke-width="12.96" fill="none" stroke-linecap="round" stroke-linejoin="round">
<path d="M0,-305 L0,-2745 L3660,-2745 L3660,-305 Z" />
<path d="M80,-385 L80,-2665 L3580,-2665 L3580,-385 Z" />
<path d="M80,-1565 L80,-1485 L3580,-1485 L3580,-1565 Z" />
<path d="M80,-1130 L80,-1050 L3580,-1050 L3580,-1130 Z" />
<path d="M80,-1980 L80,-1900 L3580,-1900 L3580,-1980 Z" />
<path d="M3660,-1697.5 L3660,-1352.5 L3940,-1352.5 L3940,-1697.5 Z" />
<path d="M-280,-1697.5 L-280,-1352.5 L0,-1352.5 L0,-1697.5 Z" />
<path d="M3580,-2665 L3580,-2135 L2590,-2135 L2590,-2665 Z" />
<path d="M3580,-1900 L3580,-1750 L2130,-1750 L2130,-1900 Z" />
<path d="M2620,-1485 L2620,-1130 L3580,-1130 L3580,-1515" />
<path d="M3580,-385 L3580,-885 L2200,-885 L2200,-385 Z" />
<path d="M3540,-425 L3540,-845 L2240,-845 L2240,-425 Z" />
<path d="M3540,-1170 L3540,-1475 L2660,-1475 L2660,-1170 Z" />
<path d="M3540,-1860 L3540,-1790 L2170,-1790 L2170,-1860 Z" />
<path d="M3540,-2625 L3540,-2175 L2630,-2175 L2630,-2625 Z" />
</g>
</svg>