<svg xmlns="http://www.w3.org/2000/svg" viewBox="-50 -950 1950 1000" width="200" height="102.56">
<g stroke="#1e293b" stroke-width="5.85" fill="none" stroke-linecap="round" stroke-linejoin="round">
<path d="M1850,0 L0,0 L0,-900 L1850,-900 Z" />
<path d="M438.01,-36.83 L70.81,-36.83 L70.81,-863.01 L438.01,-863.01 Z" />
<path d="M1104.85,-123.71 L1540.24,-123.71 L1540.24,-776.13 L1104.85,-776.13" />
<path d="M1104.85,-123.71 L1104.85,-36.83 L737.66,-36.83 L737.66,-863.01 L1104.85,-863.01 L1104.85,-776.13" />
<path d="M1540.24,-197.83 L1850,-197.83 L1850,-702.17 L1540.24,-702.17" />
<path d="M438.01,-197.83 L737.66,-197.83" />
<path d="M70.81,-702.17 L0,-702.17 L0,-197.83 L70.81,-197.83" />
<path d="M737.66,-702.17 L438.01,-702.17" />
</g>
</svg>