<svg xmlns="http://www.w3.org/2000/svg" viewBox="-50 -1270 3760 1320" width="200" height="70.21">
<g stroke="#1e293b" stroke-width="11.28" fill="none" stroke-linecap="round" stroke-linejoin="round">
<line x1="0" y1="0" x2="3660" y2="0" />
<line x1="3660" y1="-1220" x2="0" y2="-1220" />
<line x1="0" y1="-1220" x2="0" y2="0" />
<line x1="3660" y1="0" x2="3660" y2="-1220" />
<path d="M134.07,-1220 L70,-1220 L70,-70.98 L134.07,-70.98 L134.07,-1220" />
<path d="M998.09,-1220 L1062.16,-1220 L1062.16,-70.98 L998.09,-70.98 L998.09,-1220" />
<path d="M0,0 L0,-58.03 L3660,-58.03 L3660,0 Z" />
<path d="M142.05,-58.03 L142.05,-605.32 L987.49,-605.32 L987.49,-58.03 Z" />
<path d="M177.05,-93.03 L177.05,-570.32 L952.49,-570.32 L952.49,-93.03 Z" />
</g>
</svg>