<svg xmlns="http://www.w3.org/2000/svg" viewBox="-34075.16 -11759.4 34125.16 11809.4" width="200" height="69.21">
<g stroke="#1e293b" stroke-width="102.38" fill="none" stroke-linecap="round" stroke-linejoin="round">
<line x1="0" y1="-11709.4" x2="-34025.16" y2="-11709.4" />
<line x1="0" y1="-11861.8" x2="-34025.16" y2="-11861.8" />
<line x1="-50.8" y1="0" x2="-33974.36" y2="0" />
<line x1="-33974.36" y1="-152.4" x2="-50.8" y2="-152.4" />
<line x1="-30086" y1="-152.4" x2="-30035.2" y2="-152.4" />
<line x1="-11184.26" y1="-11709.4" x2="-11184.26" y2="-152.4" />
<line x1="-11184.26" y1="-152.4" x2="-11108.06" y2="-152.4" />
<line x1="-11108.06" y1="-152.4" x2="-11108.06" y2="-11709.4" />
<line x1="-10701.66" y1="-11709.4" x2="-10701.66" y2="-152.4" />
<line x1="-10701.66" y1="-152.4" x2="-10625.46" y2="-152.4" />
<line x1="-10625.46" y1="-152.4" x2="-10625.46" y2="-11709.4" />
<circle cx="-10442.53" cy="-8904.47" r="101.6" />
<circle cx="-11321.4" cy="-8904.47" r="101.6" />
<circle cx="-10442.53" cy="-8380.92" r="101.6" />
<circle cx="-11321.4" cy="-8380.92" r="101.6" />
<circle cx="-10442.53" cy="-7857.37" r="101.6" />
<circle cx="-11321.4" cy="-7857.37" r="101.6" />
<circle cx="-10442.53" cy="-7333.82" r="101.6" />
<circle cx="-11321.4" cy="-7333.82" r="101.6" />
<circle cx="-10442.53" cy="-6810.26" r="101.6" />
<circle cx="-11321.4" cy="-6810.26" r="101.6" />
<circle cx="-10884.26" cy="-7847.13" r="101.6" />
<line x1="-10701.66" y1="-9066.33" x2="-10869.21" y2="-7947.61" />
<line x1="-10726.78" y1="-9070.1" x2="-10886.8" y2="-8001.66" />
<line x1="-10676.54" y1="-9062.57" x2="-10844.57" y2="-7940.66" />
<line x1="-10902.61" y1="-7947.06" x2="-11108.06" y2="-9066.33" />
<line x1="-10927.01" y1="-7939.31" x2="-11133.04" y2="-9061.75" />
<line x1="-10877.04" y1="-7948.48" x2="-11083.07" y2="-9070.92" />
<line x1="-10902.61" y1="-7747.2" x2="-11108.06" y2="-6627.93" />
<line x1="-10927.01" y1="-7754.96" x2="-11133.04" y2="-6632.52" />
<line x1="-10877.04" y1="-7745.79" x2="-11083.07" y2="-6623.35" />
<line x1="-10869.21" y1="-7746.66" x2="-10701.66" y2="-6627.93" />
<line x1="-10886.8" y1="-7692.61" x2="-10726.78" y2="-6624.17" />
<line x1="-10844.57" y1="-7753.61" x2="-10676.54" y2="-6631.7" />
<line x1="-34025.16" y1="-11709.4" x2="-33974.36" y2="-11709.4" />
<path d="M-9710.98,-7810.16 A72.87,72.87 0 0,0 -9711.01,-7810.86" />
<path d="M-9642.49,-7787.34 A110.63,110.63 0 0,0 -9642.56,-7789.11" />
<path d="M-11931.5,-7900.28 A72.87,72.87 0 1,0 -11931.12,-7893" />
<path d="M-11924.45,-7924.94 A110.63,110.63 0 0,0 -11924.61,-7926.7" />
<line x1="0" y1="-11709.4" x2="-34025.16" y2="-11709.4" />
<line x1="0" y1="-11861.8" x2="-34025.16" y2="-11861.8" />
<line x1="-50.8" y1="0" x2="-33974.36" y2="0" />
<line x1="-33974.36" y1="-152.4" x2="0" y2="-152.4" />
<line x1="-30086" y1="-152.4" x2="-30035.2" y2="-152.4" />
<line x1="-11184.26" y1="-11709.4" x2="-11184.26" y2="-152.4" />
<line x1="-11184.26" y1="-152.4" x2="-11108.06" y2="-152.4" />
<line x1="-11108.06" y1="-152.4" x2="-11108.06" y2="-11709.4" />
<line x1="-10701.66" y1="-11709.4" x2="-10701.66" y2="-152.4" />
<line x1="-10701.66" y1="-152.4" x2="-10625.46" y2="-152.4" />
<line x1="-10625.46" y1="-152.4" x2="-10625.46" y2="-11709.4" />
<circle cx="-10442.53" cy="-8904.47" r="101.6" />
<circle cx="-11321.4" cy="-8904.47" r="101.6" />
<circle cx="-10442.53" cy="-8380.92" r="101.6" />
<circle cx="-11321.4" cy="-8380.92" r="101.6" />
<circle cx="-10442.53" cy="-7857.37" r="101.6" />
<circle cx="-11321.4" cy="-7857.37" r="101.6" />
<circle cx="-10442.53" cy="-7333.82" r="101.6" />
<circle cx="-11321.4" cy="-7333.82" r="101.6" />
<circle cx="-10442.53" cy="-6810.26" r="101.6" />
<circle cx="-11321.4" cy="-6810.26" r="101.6" />
<circle cx="-10884.26" cy="-7847.13" r="101.6" />
<line x1="-10701.66" y1="-9066.33" x2="-10869.21" y2="-7947.61" />
<line x1="-10726.78" y1="-9070.1" x2="-10886.8" y2="-8001.66" />
<line x1="-10676.54" y1="-9062.57" x2="-10844.57" y2="-7940.66" />
<line x1="-10902.61" y1="-7947.06" x2="-11108.06" y2="-9066.33" />
<line x1="-10927.01" y1="-7939.31" x2="-11133.04" y2="-9061.75" />
<line x1="-10877.04" y1="-7948.48" x2="-11083.07" y2="-9070.92" />
<line x1="-10902.61" y1="-7747.2" x2="-11108.06" y2="-6627.93" />
<line x1="-10927.01" y1="-7754.96" x2="-11133.04" y2="-6632.52" />
<line x1="-10877.04" y1="-7745.79" x2="-11083.07" y2="-6623.35" />
<line x1="-10869.21" y1="-7746.66" x2="-10701.66" y2="-6627.93" />
<line x1="-10886.8" y1="-7692.61" x2="-10726.78" y2="-6624.17" />
<line x1="-10844.57" y1="-7753.61" x2="-10676.54" y2="-6631.7" />
<line x1="-34025.16" y1="0" x2="-34025.16" y2="-11709.4" />
<line x1="-34025.16" y1="-11709.4" x2="-33974.36" y2="-11709.4" />
<line x1="-33974.36" y1="-11709.4" x2="-33974.36" y2="0" />
<path d="M-9710.98,-7810.16 A72.87,72.87 0 0,0 -9711.01,-7810.86" />
<path d="M-9642.49,-7787.34 A110.63,110.63 0 0,0 -9642.56,-7789.11" />
<path d="M-11931.5,-7900.28 A72.87,72.87 0 1,0 -11931.12,-7893" />
<path d="M-11924.45,-7924.94 A110.63,110.63 0 0,0 -11924.61,-7926.7" />
<line x1="-50.8" y1="0" x2="0" y2="0" />
<line x1="-34025.16" y1="-11861.8" x2="-34025.16" y2="-11709.4" />
<line x1="-10274.66" y1="-9066.33" x2="-11493.86" y2="-9066.33" />
<line x1="-11493.86" y1="-9066.33" x2="-11493.86" y2="-6627.93" />
<line x1="-11493.86" y1="-6627.93" x2="-10274.66" y2="-6627.93" />
<line x1="-10274.66" y1="-6627.93" x2="-10274.66" y2="-9066.33" />
<line x1="-10143.97" y1="-7811.97" x2="-10143.97" y2="-7918.33" />
<line x1="-10143.97" y1="-7918.33" x2="-8687.11" y2="-7918.33" />
<line x1="-8687.11" y1="-7918.33" x2="-8687.11" y2="-8024.69" />
<line x1="-8687.11" y1="-8024.69" x2="-8442.34" y2="-7868.04" />
<line x1="-8442.34" y1="-7868.04" x2="-8687.11" y2="-7705.61" />
<line x1="-8687.11" y1="-7705.61" x2="-8687.11" y2="-7811.97" />
<line x1="-8687.11" y1="-7811.97" x2="-10143.97" y2="-7811.97" />
<line x1="-11643.79" y1="-7887.66" x2="-11643.79" y2="-7781.3" />
<line x1="-11643.79" y1="-7781.3" x2="-13100.65" y2="-7781.3" />
<line x1="-13100.65" y1="-7781.3" x2="-13100.65" y2="-7674.94" />
<line x1="-13100.65" y1="-7674.94" x2="-13345.43" y2="-7831.59" />
<line x1="-13345.43" y1="-7831.59" x2="-13100.65" y2="-7994.02" />
<line x1="-13100.65" y1="-7994.02" x2="-13100.65" y2="-7887.66" />
<line x1="-13100.65" y1="-7887.66" x2="-11643.79" y2="-7887.66" />
<line x1="-10274.66" y1="-9066.33" x2="-11493.86" y2="-9066.33" />
<line x1="-11493.86" y1="-9066.33" x2="-11493.86" y2="-6627.93" />
<line x1="-11493.86" y1="-6627.93" x2="-10274.66" y2="-6627.93" />
<line x1="-10274.66" y1="-6627.93" x2="-10274.66" y2="-9066.33" />
<line x1="-10143.97" y1="-7811.97" x2="-10143.97" y2="-7918.33" />
<line x1="-10143.97" y1="-7918.33" x2="-8687.11" y2="-7918.33" />
<line x1="-8687.11" y1="-7918.33" x2="-8687.11" y2="-8024.69" />
<line x1="-8687.11" y1="-8024.69" x2="-8442.34" y2="-7868.04" />
<line x1="-8442.34" y1="-7868.04" x2="-8687.11" y2="-7705.61" />
<line x1="-8687.11" y1="-7705.61" x2="-8687.11" y2="-7811.97" />
<line x1="-8687.11" y1="-7811.97" x2="-10143.97" y2="-7811.97" />
<line x1="-11643.79" y1="-7887.66" x2="-11643.79" y2="-7781.3" />
<line x1="-11643.79" y1="-7781.3" x2="-13100.65" y2="-7781.3" />
<line x1="-13100.65" y1="-7781.3" x2="-13100.65" y2="-7674.94" />
<line x1="-13100.65" y1="-7674.94" x2="-13345.43" y2="-7831.59" />
<line x1="-13345.43" y1="-7831.59" x2="-13100.65" y2="-7994.02" />
<line x1="-13100.65" y1="-7994.02" x2="-13100.65" y2="-7887.66" />
<line x1="-13100.65" y1="-7887.66" x2="-11643.79" y2="-7887.66" />
<line x1="-266.39" y1="-7763.74" x2="-266.39" y2="-7560.54" />
<line x1="-266.39" y1="-7763.74" x2="-1688.79" y2="-7763.74" />
<line x1="-1688.79" y1="-7763.74" x2="-1688.79" y2="-7560.54" />
<line x1="-1688.79" y1="-7560.54" x2="-266.39" y2="-7560.54" />
<line x1="-266.39" y1="-7066.38" x2="-266.39" y2="-6863.18" />
<line x1="-266.39" y1="-7066.38" x2="-1688.79" y2="-7066.38" />
<line x1="-1688.79" y1="-7066.38" x2="-1688.79" y2="-6863.18" />
<line x1="-1688.79" y1="-6863.18" x2="-266.39" y2="-6863.18" />
<line x1="-266.39" y1="-6369.02" x2="-266.39" y2="-6165.82" />
<line x1="-266.39" y1="-6369.02" x2="-1688.79" y2="-6369.02" />
<line x1="-1688.79" y1="-6369.02" x2="-1688.79" y2="-6165.82" />
<line x1="-1688.79" y1="-6165.82" x2="-266.39" y2="-6165.82" />
<line x1="-266.39" y1="-5671.66" x2="-266.39" y2="-5468.46" />
<line x1="-266.39" y1="-5671.66" x2="-1688.79" y2="-5671.66" />
<line x1="-1688.79" y1="-5671.66" x2="-1688.79" y2="-5468.46" />
<line x1="-1688.79" y1="-5468.46" x2="-266.39" y2="-5468.46" />
<line x1="-266.39" y1="-4974.3" x2="-266.39" y2="-4771.1" />
<line x1="-266.39" y1="-4974.3" x2="-1688.79" y2="-4974.3" />
<line x1="-1688.79" y1="-4974.3" x2="-1688.79" y2="-4771.1" />
<line x1="-1688.79" y1="-4771.1" x2="-266.39" y2="-4771.1" />
<line x1="-266.39" y1="-4276.94" x2="-266.39" y2="-4073.74" />
<line x1="-266.39" y1="-4276.94" x2="-1688.79" y2="-4276.94" />
<line x1="-1688.79" y1="-4276.94" x2="-1688.79" y2="-4073.74" />
<line x1="-1688.79" y1="-4073.74" x2="-266.39" y2="-4073.74" />
<line x1="-266.39" y1="-3579.58" x2="-266.39" y2="-3376.38" />
<line x1="-266.39" y1="-3579.58" x2="-1688.79" y2="-3579.58" />
<line x1="-1688.79" y1="-3579.58" x2="-1688.79" y2="-3376.38" />
<line x1="-1688.79" y1="-3376.38" x2="-266.39" y2="-3376.38" />
<line x1="-266.39" y1="-2882.21" x2="-266.39" y2="-2679.01" />
<line x1="-266.39" y1="-2882.21" x2="-1688.79" y2="-2882.21" />
<line x1="-1688.79" y1="-2882.21" x2="-1688.79" y2="-2679.01" />
<line x1="-1688.79" y1="-2679.01" x2="-266.39" y2="-2679.01" />
<line x1="-266.39" y1="-2184.85" x2="-266.39" y2="-1981.65" />
<line x1="-266.39" y1="-2184.85" x2="-1688.79" y2="-2184.85" />
<line x1="-1688.79" y1="-2184.85" x2="-1688.79" y2="-1981.65" />
<line x1="-1688.79" y1="-1981.65" x2="-266.39" y2="-1981.65" />
<line x1="-266.39" y1="-1487.49" x2="-266.39" y2="-1284.29" />
<line x1="-266.39" y1="-1487.49" x2="-1688.79" y2="-1487.49" />
<line x1="-1688.79" y1="-1487.49" x2="-1688.79" y2="-1284.29" />
<line x1="-1688.79" y1="-1284.29" x2="-266.39" y2="-1284.29" />
<line x1="-266.39" y1="-790.13" x2="-266.39" y2="-586.93" />
<line x1="-266.39" y1="-790.13" x2="-1688.79" y2="-790.13" />
<line x1="-1688.79" y1="-790.13" x2="-1688.79" y2="-586.93" />
<line x1="-1688.79" y1="-586.93" x2="-266.39" y2="-586.93" />
<line x1="-266.39" y1="-7763.74" x2="-266.39" y2="-7560.54" />
<line x1="-266.39" y1="-7763.74" x2="-1688.79" y2="-7763.74" />
<line x1="-1688.79" y1="-7763.74" x2="-1688.79" y2="-7560.54" />
<line x1="-1688.79" y1="-7560.54" x2="-266.39" y2="-7560.54" />
<line x1="-266.39" y1="-7066.38" x2="-266.39" y2="-6863.18" />
<line x1="-266.39" y1="-7066.38" x2="-1688.79" y2="-7066.38" />
<line x1="-1688.79" y1="-7066.38" x2="-1688.79" y2="-6863.18" />
<line x1="-1688.79" y1="-6863.18" x2="-266.39" y2="-6863.18" />
<line x1="-266.39" y1="-6369.02" x2="-266.39" y2="-6165.82" />
<line x1="-266.39" y1="-6369.02" x2="-1688.79" y2="-6369.02" />
<line x1="-1688.79" y1="-6369.02" x2="-1688.79" y2="-6165.82" />
<line x1="-1688.79" y1="-6165.82" x2="-266.39" y2="-6165.82" />
<line x1="-266.39" y1="-5671.66" x2="-266.39" y2="-5468.46" />
<line x1="-266.39" y1="-5671.66" x2="-1688.79" y2="-5671.66" />
<line x1="-1688.79" y1="-5671.66" x2="-1688.79" y2="-5468.46" />
<line x1="-1688.79" y1="-5468.46" x2="-266.39" y2="-5468.46" />
<line x1="-266.39" y1="-4974.3" x2="-266.39" y2="-4771.1" />
<line x1="-266.39" y1="-4974.3" x2="-1688.79" y2="-4974.3" />
<line x1="-1688.79" y1="-4974.3" x2="-1688.79" y2="-4771.1" />
<line x1="-1688.79" y1="-4771.1" x2="-266.39" y2="-4771.1" />
<line x1="-266.39" y1="-4276.94" x2="-266.39" y2="-4073.74" />
<line x1="-266.39" y1="-4276.94" x2="-1688.79" y2="-4276.94" />
<line x1="-1688.79" y1="-4276.94" x2="-1688.79" y2="-4073.74" />
<line x1="-1688.79" y1="-4073.74" x2="-266.39" y2="-4073.74" />
<line x1="-266.39" y1="-3579.58" x2="-266.39" y2="-3376.38" />
<line x1="-266.39" y1="-3579.58" x2="-1688.79" y2="-3579.58" />
<line x1="-1688.79" y1="-3579.58" x2="-1688.79" y2="-3376.38" />
<line x1="-1688.79" y1="-3376.38" x2="-266.39" y2="-3376.38" />
<line x1="-266.39" y1="-2882.21" x2="-266.39" y2="-2679.01" />
<line x1="-266.39" y1="-2882.21" x2="-1688.79" y2="-2882.21" />
<line x1="-1688.79" y1="-2882.21" x2="-1688.79" y2="-2679.01" />
<line x1="-1688.79" y1="-2679.01" x2="-266.39" y2="-2679.01" />
<line x1="-266.39" y1="-2184.85" x2="-266.39" y2="-1981.65" />
<line x1="-266.39" y1="-2184.85" x2="-1688.79" y2="-2184.85" />
<line x1="-1688.79" y1="-2184.85" x2="-1688.79" y2="-1981.65" />
<line x1="-1688.79" y1="-1981.65" x2="-266.39" y2="-1981.65" />
<line x1="-266.39" y1="-1487.49" x2="-266.39" y2="-1284.29" />
<line x1="-266.39" y1="-1487.49" x2="-1688.79" y2="-1487.49" />
<line x1="-1688.79" y1="-1487.49" x2="-1688.79" y2="-1284.29" />
<line x1="-1688.79" y1="-1284.29" x2="-266.39" y2="-1284.29" />
<line x1="-266.39" y1="-790.13" x2="-266.39" y2="-586.93" />
<line x1="-266.39" y1="-790.13" x2="-1688.79" y2="-790.13" />
<line x1="-1688.79" y1="-790.13" x2="-1688.79" y2="-586.93" />
<line x1="-1688.79" y1="-586.93" x2="-266.39" y2="-586.93" />
<line x1="0" y1="0" x2="-50.8" y2="0" />
<line x1="0" y1="0" x2="0" y2="-152.4" />
<line x1="0" y1="-11709.4" x2="0" y2="-11861.8" />
<line x1="-31332.46" y1="-152.4" x2="-31281.66" y2="-152.4" />
<line x1="-31332.46" y1="-152.4" x2="-31281.66" y2="-152.4" />
<line x1="-32578.93" y1="-152.4" x2="-32528.13" y2="-152.4" />
<line x1="-32578.93" y1="-152.4" x2="-32528.13" y2="-152.4" />
</g>
</svg>