<svg xmlns="http://www.w3.org/2000/svg" viewBox="-1523.5 -1051.05 3758 1101.05" width="200" height="58.6">
<g stroke="#1e293b" stroke-width="11.27" fill="none" stroke-linecap="round" stroke-linejoin="round">
<path d="M317.5,-914 L0,-914 L0,-304.8" />
<path d="M381,-863.2 L330.2,-863.2 L330.2,-533 L381,-533 Z" />
<path d="M317.5,-1001.05 L317.5,-698.1 L330.2,-698.1 L330.2,-1001.05" />
<circle cx="323.85" cy="-1012.04" r="12.7" />
<path d="M634.8,-228.6 L330.2,-228.6 L330.2,0 L634.8,0 Z" />
<line x1="603.35" y1="-304.8" x2="603.35" y2="-228.6" />
<line x1="381" y1="-533" x2="381" y2="-533" />
<line x1="381" y1="-330.2" x2="381" y2="-533" />
<path d="M711,-304.8 L711,-914 L330.2,-914" />
<line x1="0" y1="-304.8" x2="292.1" y2="-305.18" />
<path d="M330.2,-698.1 L292.1,-698.1 L292.1,0 L330.2,0 Z" />
<line x1="711" y1="-304.8" x2="603.35" y2="-304.8" />
<line x1="603.35" y1="-304.8" x2="406.4" y2="-304.8" />
<path d="M431.76,-331.59 A25.4,25.4 0 0,0 431.71,-332.29" />
<path d="M292.08,-13.4 A12.7,12.7 0 0,0 292.06,-13.74" />
<line x1="266.7" y1="-25.4" x2="266.7" y2="-12.7" />
<line x1="279.4" y1="0" x2="292.1" y2="0" />
<line x1="292.1" y1="0" x2="292.1" y2="-25.4" />
<path d="M292.1,-165.45 A12.7,12.7 0 0,0 292.08,-165.8" />
<line x1="292.1" y1="-177.8" x2="279.4" y2="-177.8" />
<line x1="266.7" y1="-165.1" x2="266.7" y2="-25.4" />
<circle cx="383.84" cy="-160.43" r="50.8" />
<path d="M410.39,-542.58 A50.49,50.49 0 1,0 410.58,-539.07" />
<path d="M634.8,-89.14 L356.97,-89.14 L356.97,0 L634.8,0 Z" />
<path d="M711,-914 L711,-304 L2184.5,-304 L2184.5,-914 Z" />
<line x1="711" y1="-363.39" x2="2184.5" y2="-363.39" />
<path d="M-1473.5,-914 L-1473.5,-304 L0,-304 L0,-914 Z" />
<line x1="-1473.5" y1="-363.39" x2="0" y2="-363.39" />
</g>
</svg>