<svg xmlns="http://www.w3.org/2000/svg" viewBox="-3100 -1051.05 6911 1158.61" width="200" height="33.53">
<g stroke="#1e293b" stroke-width="20.73" fill="none" stroke-linecap="round" stroke-linejoin="round">
<path d="M317.5,-914 L0,-914 L0,-247.23" />
<path d="M381,-863.2 L330.2,-863.2 L330.2,-533 L381,-533 Z" />
<path d="M317.5,-1001.05 L317.5,-698.1 L330.2,-698.1 L330.2,-1001.05" />
<circle cx="323.85" cy="-1012.04" r="12.7" />
<path d="M634.8,-171.03 L330.2,-171.03 L330.2,57.57 L634.8,57.57 Z" />
<line x1="603.35" y1="-247.23" x2="603.35" y2="-171.03" />
<line x1="381" y1="-533" x2="381" y2="-533" />
<line x1="381" y1="-272.63" x2="381" y2="-533" />
<path d="M711,-247.23 L711,-914 L330.2,-914" />
<line x1="0" y1="-247.23" x2="292.1" y2="-247.61" />
<path d="M330.2,-698.1 L292.1,-698.1 L292.1,57.57 L330.2,57.57 Z" />
<line x1="711" y1="-247.23" x2="603.35" y2="-247.23" />
<line x1="603.35" y1="-247.23" x2="406.4" y2="-247.23" />
<path d="M431.76,-274.03 A25.4,25.4 0 0,0 431.71,-274.72" />
<path d="M292.08,44.17 A12.7,12.7 0 0,0 292.06,43.82" />
<line x1="266.7" y1="32.17" x2="266.7" y2="44.87" />
<line x1="279.4" y1="57.57" x2="292.1" y2="57.57" />
<line x1="292.1" y1="57.57" x2="292.1" y2="32.17" />
<path d="M292.1,-107.88 A12.7,12.7 0 0,0 292.08,-108.23" />
<line x1="292.1" y1="-120.23" x2="279.4" y2="-120.23" />
<line x1="266.7" y1="-107.53" x2="266.7" y2="32.17" />
<circle cx="383.84" cy="-102.87" r="50.8" />
<path d="M410.39,-542.58 A50.49,50.49 0 1,0 410.58,-539.07" />
<path d="M634.8,-31.58 L356.97,-31.58 L356.97,57.57 L634.8,57.57 Z" />
<path d="M711,-914 L711,-246.43 L3761,-247.23 L3761,-914.8 Z" />
<line x1="711" y1="-363.39" x2="3761" y2="-364.19" />
<path d="M0,-495.75 L0,-914 L-3050,-914 L-3050,-246.43 L-2560.79,-246.43" />
<line x1="-3050" y1="-363.39" x2="-2560.79" y2="-363.39" />
<path d="M-2560.79,-382.78 L-2560.79,-223.62 L-2133.42,-223.62 L-2133.42,-382.78 Z" />
<path d="M-566.21,-495.75 L-566.21,-317.3 L164.86,-317.3 L164.86,-495.75 Z" />
<line x1="-2133.42" y1="-363.39" x2="-566.21" y2="-363.39" />
<path d="M-2133.42,-246.43 L0,-246.43 L0,-317.3" />
</g>
</svg>