<svg xmlns="http://www.w3.org/2000/svg" viewBox="-50 -1270 3760 1320" width="200" height="70.21">
<g stroke="#1e293b" stroke-width="11.28" fill="none" stroke-linecap="round" stroke-linejoin="round">
<line x1="0" y1="0" x2="3660" y2="0" />
<line x1="3660" y1="-1220" x2="0" y2="-1220" />
<line x1="0" y1="-1220" x2="0" y2="0" />
<line x1="3660" y1="0" x2="3660" y2="-1220" />
<path d="M80,-1220 L80,-610 L3580,-610 L3580,-1220 Z" />
<circle cx="545.9" cy="-480.52" r="49.48" />
<path d="M496.55,-530 L496.28,-431.04 L595.25,-431.04 L595.51,-530 Z" />
<path d="M533.04,-431.04 L533.04,-420.48 L576.9,-420.48 L576.9,-431.04 Z" />
<path d="M462.15,-610 L462.15,-530 L3500,-530 L3500,-610 Z" />
<circle cx="1013.5" cy="-480.52" r="49.48" />
<path d="M964.15,-530 L963.89,-431.04 L1062.85,-431.04 L1063.11,-530 Z" />
<path d="M1000.64,-431.04 L1000.64,-420.48 L1044.51,-420.48 L1044.51,-431.04 Z" />
<circle cx="1673.15" cy="-480.52" r="49.48" />
<path d="M1623.8,-530 L1623.54,-431.04 L1722.5,-431.04 L1722.76,-530 Z" />
<path d="M1660.3,-431.04 L1660.3,-420.48 L1704.16,-420.48 L1704.16,-431.04 Z" />
<circle cx="1898.6" cy="-480.52" r="49.48" />
<path d="M1849.25,-530 L1848.99,-431.04 L1947.95,-431.04 L1948.21,-530 Z" />
<path d="M1885.75,-431.04 L1885.75,-420.48 L1929.61,-420.48 L1929.61,-431.04 Z" />
<circle cx="2387.08" cy="-480.52" r="49.48" />
<path d="M2337.73,-530 L2337.47,-431.04 L2436.43,-431.04 L2436.69,-530 Z" />
<path d="M2374.23,-431.04 L2374.23,-420.48 L2418.09,-420.48 L2418.09,-431.04 Z" />
<circle cx="1147.1" cy="-480.52" r="49.48" />
<path d="M1097.75,-530 L1097.49,-431.04 L1196.45,-431.04 L1196.71,-530 Z" />
<path d="M1134.25,-431.04 L1134.25,-420.48 L1178.11,-420.48 L1178.11,-431.04 Z" />
<circle cx="2925.66" cy="-480.52" r="49.48" />
<path d="M2876.3,-530 L2876.04,-431.04 L2975.01,-431.04 L2975.27,-530 Z" />
<path d="M2912.8,-431.04 L2912.8,-420.48 L2956.66,-420.48 L2956.66,-431.04 Z" />
<circle cx="3205.38" cy="-480.52" r="49.48" />
<path d="M3156.03,-530 L3155.77,-431.04 L3254.73,-431.04 L3254.99,-530 Z" />
<path d="M3192.53,-431.04 L3192.53,-420.48 L3236.39,-420.48 L3236.39,-431.04 Z" />
<path d="M80,-610 L80,-477.14 L462.15,-477.14 L462.15,-610 Z" />
<circle cx="192.58" cy="-1141.3" r="50" />
<circle cx="489.01" cy="-1141.3" r="37.5" />
<circle cx="2225.82" cy="-1141.3" r="37.5" />
</g>
</svg>