<svg xmlns="http://www.w3.org/2000/svg" viewBox="-50 -660 1259.45 1006.8" width="200" height="159.88">
<g stroke="#1e293b" stroke-width="3.78" fill="none" stroke-linecap="round" stroke-linejoin="round">
<line x1="558.8" y1="-337.27" x2="355.6" y2="-337.27" />
<line x1="355.6" y1="-610" x2="558.8" y2="-610" />
<line x1="914" y1="-610" x2="0" y2="-610" />
<line x1="0" y1="0" x2="914" y2="0" />
<line x1="355.6" y1="-337.27" x2="355.6" y2="-610" />
<line x1="0" y1="-610" x2="0" y2="0" />
<line x1="0" y1="-457.6" x2="355.6" y2="-457.6" />
<line x1="558.8" y1="-610" x2="558.8" y2="-337.27" />
<line x1="914" y1="0" x2="914" y2="-610" />
<line x1="558.8" y1="-457.6" x2="914" y2="-457.6" />
<path d="M558.65,-342.84 A101.6,101.6 0 1,0 558.8,-337.27" />
<path d="M1016.35,80.08 L960.48,217.72 L1098.12,273.59 L1153.99,135.95" />
<path d="M1159.05,100.38 A74.27,74.27 0 1,0 1159.36,104.44" />
<path d="M1136.25,-141.11 A396.93,396.93 0 1,0 1138.29,-107.9" />
</g>
</svg>